<svg width="134" height="59" viewBox="0 0 134 59" fill="none" xmlns="http://www.w3.org/2000/svg">
<g clip-path="url(#clip0)">
<path d="M0 51.6779C0.0839575 51.6623 0.16868 51.6511 0.253819 51.6443H0.516101H0.77838C0.863549 51.6508 0.948286 51.662 1.0322 51.6779V54.6402H4.12034V51.6779C4.19988 51.6614 4.28044 51.6502 4.36147 51.6443H4.62375H4.89026C4.97686 51.6505 5.06302 51.6617 5.14831 51.6779V58.8782C5.06862 58.8929 4.98809 58.9027 4.90718 58.9076C4.81835 58.9076 4.72951 58.9076 4.63221 58.9076H4.3657C4.28337 58.9029 4.20142 58.8931 4.12034 58.8782V55.5424H1.0322V58.8782C0.949585 58.8924 0.866273 58.9022 0.782611 58.9076C0.693831 58.9121 0.60488 58.9121 0.516101 58.9076H0.249588C0.165858 58.9029 0.082502 58.8931 0 58.8782V51.6779Z" fill="black"/>
<path d="M9.58593 55.4921C9.60541 55.3387 9.58838 55.1828 9.53622 55.0371C9.48407 54.8914 9.39823 54.7598 9.28558 54.6529C9.02507 54.4838 8.71639 54.4028 8.40567 54.4221C8.18294 54.4216 7.96063 54.4413 7.74151 54.4809C7.53848 54.516 7.33785 54.5636 7.1408 54.6235C7.00818 54.3819 6.9425 54.1097 6.95044 53.8347C7.19757 53.7565 7.45086 53.699 7.70767 53.6626C7.97227 53.6228 8.23957 53.6032 8.5072 53.6039C9.05748 53.5657 9.60305 53.7267 10.0428 54.0571C10.2308 54.2488 10.375 54.4785 10.4655 54.7305C10.556 54.9825 10.5907 55.2508 10.5674 55.5173V58.7314C10.3305 58.786 10.0428 58.8405 9.7213 58.8992C9.38008 58.9548 9.03489 58.9828 8.6891 58.9832C8.38896 58.9869 8.0894 58.956 7.7965 58.8909C7.55311 58.8419 7.32262 58.7433 7.11965 58.6013C6.93727 58.4689 6.79173 58.2928 6.69661 58.0894C6.58887 57.8538 6.53679 57.5969 6.54433 57.3383C6.53891 57.0758 6.6 56.8161 6.722 56.5831C6.83505 56.3671 6.99905 56.1814 7.20002 56.0418C7.41111 55.8941 7.64768 55.786 7.89803 55.7229C8.17387 55.6496 8.45856 55.6143 8.7441 55.618C8.95561 55.618 9.13329 55.618 9.27289 55.618C9.41249 55.618 9.52671 55.618 9.61977 55.6557L9.58593 55.4921ZM9.58593 56.4656L9.2052 56.4236C9.04868 56.4236 8.91754 56.4026 8.80755 56.4026C8.47406 56.3824 8.14222 56.4629 7.85573 56.6334C7.74525 56.7138 7.65707 56.8205 7.59937 56.9438C7.54168 57.067 7.51636 57.2028 7.52576 57.3383C7.51786 57.5021 7.55593 57.6648 7.63575 57.8083C7.70754 57.915 7.80306 58.004 7.91495 58.0684C8.02893 58.1291 8.15413 58.1662 8.28299 58.1775C8.41836 58.1775 8.54527 58.1775 8.66795 58.1775C8.82762 58.1773 8.98717 58.1689 9.14598 58.1524C9.2887 58.1377 9.43011 58.1125 9.56901 58.0768L9.58593 56.4656Z" fill="black"/>
<path d="M12.0734 53.7381L12.2849 53.7087H12.4964H12.7164L12.9194 53.7381C12.9466 53.8768 12.9664 54.0169 12.9787 54.1577C12.9986 54.2967 13.0099 54.4369 13.0125 54.5773C13.1572 54.3453 13.347 54.1442 13.5709 53.9857C13.8337 53.8093 14.1465 53.7211 14.4635 53.7339H14.6327H14.7765C14.7927 53.7959 14.804 53.859 14.8104 53.9227C14.8104 53.9899 14.8104 54.0612 14.8104 54.1325C14.8167 54.2163 14.8167 54.3005 14.8104 54.3843C14.8104 54.4724 14.7892 54.5563 14.7765 54.6361C14.7217 54.6299 14.6664 54.6299 14.6116 54.6361H14.472C14.297 54.6346 14.1229 54.6601 13.9559 54.7116C13.7869 54.7621 13.633 54.8529 13.5074 54.9759C13.366 55.1246 13.2591 55.3022 13.1944 55.4962C13.112 55.7683 13.0735 56.0515 13.0802 56.3354V58.8908C12.9977 58.9057 12.9143 58.9155 12.8306 58.9202H12.5852H12.3356C12.2506 58.915 12.1658 58.9052 12.0818 58.8908L12.0734 53.7381Z" fill="black"/>
<path d="M16.1303 54.5229H15.4746C15.4613 54.4605 15.4515 54.3975 15.4449 54.3341C15.4407 54.2656 15.4407 54.1969 15.4449 54.1285C15.4408 54.0614 15.4408 53.9941 15.4449 53.9271C15.4515 53.8636 15.4613 53.8006 15.4746 53.7382H17.1117V58.8783C17.0292 58.8932 16.9458 58.9031 16.8621 58.9077H16.6167H16.3799C16.2961 58.9031 16.2128 58.8932 16.1303 58.8783V54.5229ZM15.9103 52.6095C15.897 52.5219 15.8886 52.4337 15.8849 52.3452C15.8849 52.2528 15.8849 52.1689 15.8849 52.0976C15.8849 52.0263 15.8849 51.9381 15.8849 51.8458C15.8883 51.7615 15.8968 51.6774 15.9103 51.5941L16.1937 51.5647H16.456H16.7183L16.989 51.5941C17.0067 51.6768 17.0152 51.7612 17.0144 51.8458C17.0144 51.9381 17.0144 52.0221 17.0144 52.0976C17.0144 52.1731 17.0144 52.2528 17.0144 52.3452C17.015 52.4339 17.0065 52.5225 16.989 52.6095L16.7225 52.6389H16.4645H16.1937L15.9103 52.6095Z" fill="black"/>
<path d="M22.0612 51.5185C22.1331 51.5185 22.2177 51.5185 22.315 51.4891C22.4123 51.4598 22.4885 51.4891 22.5561 51.4891C22.6238 51.4891 22.7127 51.4891 22.8015 51.4891L23.0511 51.5185V58.723C22.7728 58.8002 22.4903 58.8618 22.205 58.9077C21.8536 58.9606 21.4986 58.9859 21.1432 58.9832C20.7946 58.9844 20.4475 58.9392 20.111 58.8489C19.7986 58.7642 19.5094 58.6107 19.2649 58.3999C19.0118 58.1818 18.8146 57.9071 18.6896 57.5985C18.5363 57.2129 18.4643 56.8002 18.4781 56.3859C18.4721 56.0016 18.5351 55.6194 18.6642 55.2571C18.7772 54.9316 18.9573 54.6329 19.193 54.3802C19.424 54.135 19.7053 53.9418 20.0179 53.8137C20.3558 53.6755 20.7185 53.6069 21.084 53.6123C21.2611 53.6118 21.438 53.6259 21.6128 53.6543C21.7718 53.6754 21.9288 53.7091 22.0823 53.755L22.0612 51.5185ZM22.0612 54.5942C21.9245 54.5401 21.7828 54.4993 21.6382 54.4725C21.4717 54.4463 21.3033 54.4336 21.1347 54.4347C20.8864 54.4288 20.6402 54.4806 20.4156 54.5858C20.218 54.6844 20.0469 54.8283 19.9164 55.0054C19.7801 55.1889 19.6809 55.397 19.6245 55.618C19.5586 55.8715 19.5259 56.1324 19.5272 56.3943C19.5064 56.6404 19.5361 56.8882 19.6147 57.1226C19.6932 57.357 19.8189 57.5731 19.9841 57.758C20.3163 58.0498 20.7508 58.2005 21.194 58.1776C21.3565 58.1783 21.5189 58.1699 21.6805 58.1524C21.8135 58.1385 21.9452 58.1132 22.0739 58.0769L22.0612 54.5942Z" fill="black"/>
<path d="M24.5951 53.7381L24.849 53.7087H25.0901H25.3439L25.5977 53.7381V56.5536C25.5914 56.8221 25.6213 57.0902 25.6866 57.3509C25.7324 57.5372 25.8273 57.708 25.9615 57.846C26.083 57.9694 26.2369 58.0566 26.4057 58.0978C26.6034 58.1475 26.8068 58.1715 27.0107 58.1691C27.308 58.1754 27.6047 58.1372 27.8906 58.0558V53.7381L28.1359 53.7087H28.3855H28.6309L28.8805 53.7381V58.7188C28.6436 58.7859 28.3601 58.8488 28.0344 58.9076C27.6998 58.9706 27.3598 59.0016 27.0191 58.9999C26.7056 59.0006 26.3926 58.9725 26.0842 58.916C25.8028 58.8637 25.5386 58.7442 25.3143 58.5677C25.0759 58.376 24.8946 58.1236 24.7897 57.8376C24.6434 57.4344 24.5773 57.0069 24.5951 56.5788V53.7381Z" fill="black"/>
<path d="M30.3484 57.9468C30.542 58.026 30.7433 58.085 30.9491 58.123C31.1637 58.1648 31.3819 58.1859 31.6006 58.186C31.7499 58.1877 31.899 58.1722 32.0448 58.1398C32.1751 58.1101 32.2995 58.0591 32.4128 57.9888C32.5133 57.924 32.5996 57.8398 32.6666 57.7412C32.7292 57.645 32.7615 57.5326 32.7597 57.4181C32.764 57.3029 32.7377 57.1886 32.6835 57.0866C32.6325 57.0004 32.565 56.9248 32.4847 56.8642C32.3922 56.8016 32.2929 56.7496 32.1886 56.709L31.8332 56.5831L31.4779 56.453C31.1291 56.3419 30.8088 56.1573 30.5388 55.9117C30.4383 55.8027 30.3608 55.675 30.3107 55.536C30.2606 55.3969 30.2389 55.2494 30.2469 55.1019C30.2455 54.8962 30.2922 54.6929 30.3832 54.508C30.4742 54.3231 30.6071 54.1616 30.7714 54.0361C31.1894 53.7361 31.6988 53.5879 32.214 53.6165C32.4725 53.6161 32.7304 53.6414 32.9839 53.692C33.2087 53.7357 33.4305 53.7932 33.6481 53.8641C33.636 54.006 33.6105 54.1465 33.5719 54.2837C33.5359 54.4099 33.4906 54.5333 33.4365 54.6529C33.2885 54.6026 33.1108 54.548 32.9035 54.4977C32.6875 54.4458 32.4658 54.4205 32.2436 54.4222C32.0155 54.4194 31.7893 54.4637 31.5794 54.5522C31.4892 54.5902 31.4132 54.655 31.3616 54.7377C31.3101 54.8203 31.2857 54.9168 31.2918 55.0138C31.2894 55.1121 31.3127 55.2094 31.3594 55.2961C31.4061 55.3829 31.4746 55.4562 31.5583 55.5089C31.6431 55.5695 31.7356 55.6188 31.8332 55.6558L32.1717 55.7775L32.6159 55.9243C32.7744 55.9767 32.9286 56.0412 33.077 56.1173C33.2166 56.1853 33.3427 56.2777 33.4492 56.3901C33.5597 56.5129 33.6458 56.6552 33.703 56.8097C33.778 57.0128 33.8117 57.2285 33.8022 57.4445C33.7928 57.6606 33.7404 57.8726 33.6481 58.0685C33.5494 58.272 33.4046 58.45 33.225 58.5888C33.0247 58.7401 32.7982 58.8539 32.5566 58.9245C32.2738 59.0074 31.9801 59.0484 31.6852 59.0462C31.4017 59.05 31.1184 59.0276 30.8391 58.979C30.6091 58.9401 30.3828 58.8826 30.1623 58.807C30.1757 58.6646 30.2041 58.524 30.2469 58.3874C30.2596 58.2321 30.3103 58.0811 30.3484 57.9468Z" fill="black"/>
<path d="M35.7971 56.5536C35.7811 56.7768 35.8103 57.001 35.883 57.2128C35.9556 57.4247 36.0702 57.62 36.2201 57.7873C36.5657 58.0704 37.0083 58.2102 37.4554 58.1775C37.9227 58.1796 38.3863 58.0942 38.8217 57.9257C38.8802 58.0432 38.9242 58.1671 38.9529 58.295C38.9845 58.4329 39.0043 58.5733 39.0121 58.7146C38.7769 58.8116 38.5314 58.882 38.2803 58.9244C37.9882 58.9733 37.6924 58.9971 37.3961 58.9957C36.984 59.0049 36.5737 58.9381 36.1863 58.7985C35.8636 58.6858 35.5732 58.4972 35.3402 58.2488C35.1173 58.009 34.9524 57.722 34.8579 57.4096C34.7532 57.064 34.7019 56.7047 34.7056 56.3438C34.7035 55.9834 34.7533 55.6245 34.8537 55.278C34.9417 54.9637 35.0944 54.6708 35.3021 54.4179C35.5081 54.1688 35.7685 53.9693 36.0636 53.8346C36.4056 53.6847 36.7769 53.6116 37.1508 53.6206C37.4733 53.6126 37.7937 53.6742 38.0899 53.801C38.3505 53.913 38.582 54.0823 38.7668 54.2962C38.9577 54.5155 39.1016 54.771 39.1898 55.0473C39.287 55.354 39.3355 55.674 39.3336 55.9956C39.3336 56.0879 39.3336 56.1844 39.3336 56.2893C39.3336 56.3942 39.3336 56.4823 39.3336 56.5536H35.7971ZM38.3649 55.8151C38.366 55.6334 38.3403 55.4524 38.2887 55.278C38.2426 55.1172 38.1665 54.9664 38.0645 54.8333C37.967 54.703 37.8393 54.598 37.6922 54.527C37.5235 54.4465 37.338 54.4062 37.1508 54.4095C36.9754 54.3984 36.7998 54.4262 36.6367 54.4908C36.4735 54.5554 36.3269 54.6552 36.2074 54.7829C35.9697 55.0779 35.8294 55.4383 35.8055 55.8151H38.3649Z" fill="black"/>
<path d="M43.1409 51.6779C43.2248 51.662 43.3096 51.6508 43.3947 51.6443H43.657H43.9193C44.0031 51.6511 44.0864 51.6623 44.1689 51.6779V58.8782C44.0877 58.8924 44.0058 58.9022 43.9235 58.9076C43.8389 58.9076 43.7501 58.9076 43.657 58.9076H43.3863C43.304 58.9029 43.222 58.8931 43.1409 58.8782V51.6779Z" fill="black"/>
<path d="M49.1903 51.5186L49.4441 51.4893C49.5372 51.4893 49.6176 51.4893 49.6853 51.4893C49.753 51.4893 49.8418 51.4893 49.9349 51.4893L50.1802 51.5186V58.7232C49.902 58.8007 49.6195 58.8624 49.3342 58.9078C48.9828 58.9607 48.6277 58.986 48.2723 58.9833C47.9238 58.9845 47.5766 58.9393 47.2401 58.849C46.9189 58.7653 46.6221 58.6077 46.3736 58.389C46.1252 58.1703 45.9322 57.8967 45.8103 57.5902C45.657 57.2046 45.585 56.7919 45.5988 56.3776C45.5927 55.9934 45.6558 55.6112 45.7849 55.2489C45.8979 54.9233 46.078 54.6247 46.3137 54.3719C46.5447 54.1267 46.826 53.9336 47.1386 53.8055C47.4765 53.6672 47.8392 53.5987 48.2047 53.604C48.3818 53.6036 48.5586 53.6176 48.7334 53.646C48.8924 53.6671 49.0494 53.7008 49.203 53.7467L49.1903 51.5186ZM49.1903 54.5943C49.0536 54.5402 48.9119 54.4995 48.7673 54.4726C48.6008 54.4464 48.4324 54.4338 48.2639 54.4348C48.0156 54.429 47.7693 54.4807 47.5447 54.5859C47.3472 54.6846 47.1761 54.8284 47.0455 55.0055C46.9092 55.1891 46.8101 55.3971 46.7536 55.6181C46.6878 55.8717 46.6551 56.1326 46.6563 56.3944C46.6355 56.6405 46.6653 56.8883 46.7438 57.1227C46.8223 57.3571 46.948 57.5733 47.1132 57.7581C47.4454 58.0499 47.8799 58.2006 48.3231 58.1777C48.4856 58.1784 48.648 58.17 48.8096 58.1525C48.9427 58.1386 49.0743 58.1134 49.203 58.077L49.1903 54.5943Z" fill="black"/>
<path d="M52.5323 56.5536C52.5163 56.7768 52.5455 57.001 52.6182 57.2128C52.6908 57.4247 52.8054 57.62 52.9553 57.7873C53.3027 58.0703 53.7464 58.21 54.1948 58.1775C54.6608 58.1796 55.123 58.0941 55.557 57.9257C55.6172 58.0424 55.6613 58.1666 55.6881 58.295C55.7218 58.4326 55.7416 58.5731 55.7473 58.7146C55.5121 58.8116 55.2666 58.882 55.0155 58.9244C54.7234 58.9735 54.4276 58.9973 54.1313 58.9957C53.7192 59.0049 53.3089 58.9381 52.9215 58.7985C52.5994 58.6845 52.3094 58.4961 52.0754 58.2488C51.8526 58.0097 51.6889 57.7223 51.5974 57.4096C51.4927 57.064 51.4413 56.7047 51.4451 56.3438C51.4415 55.9836 51.49 55.6247 51.5889 55.278C51.6784 54.9634 51.8325 54.6706 52.0416 54.4179C52.2457 54.1669 52.5066 53.9671 52.803 53.8346C53.1451 53.6847 53.5163 53.6116 53.8902 53.6206C54.2127 53.6134 54.5329 53.675 54.8293 53.801C55.0893 53.9141 55.3205 54.0832 55.5062 54.2962C55.6958 54.5164 55.8396 54.7717 55.9292 55.0473C56.0286 55.3536 56.0771 55.6738 56.0731 55.9956C56.0731 56.0879 56.0731 56.1844 56.0731 56.2893C56.0731 56.3942 56.0731 56.4823 56.0731 56.5536H52.5323ZM55.1001 55.8151C55.1012 55.6334 55.0755 55.4524 55.0239 55.278C54.9798 55.1165 54.9035 54.9653 54.7997 54.8333C54.7022 54.703 54.5745 54.598 54.4275 54.527C54.1825 54.4177 53.9101 54.3837 53.6455 54.4293C53.3809 54.4749 53.1361 54.5981 52.9426 54.7829C52.7045 55.0773 52.5654 55.4383 52.545 55.8151H55.1001Z" fill="black"/>
<path d="M57.4225 53.7383L57.6425 53.7089H57.8583H58.0655L58.2728 53.7383C58.2728 53.839 58.3109 53.9733 58.3321 54.1579C58.3503 54.2971 58.3602 54.4372 58.3617 54.5775C58.4341 54.4534 58.5207 54.3379 58.6197 54.2334C58.7267 54.1185 58.8474 54.0171 58.9793 53.9313C59.123 53.8357 59.2797 53.7608 59.4446 53.7089C59.6309 53.6516 59.825 53.6233 60.02 53.625C60.2627 53.6052 60.5068 53.6402 60.7339 53.7274C60.9611 53.8146 61.1653 53.9518 61.3314 54.1285C61.6432 54.5641 61.7928 55.0936 61.7544 55.6265V58.8826C61.6705 58.8975 61.5857 58.9073 61.5006 58.912H61.2467H61.0014C60.9177 58.9073 60.8343 58.8975 60.7518 58.8826V55.8992C60.7784 55.5361 60.7022 55.1728 60.5318 54.8502C60.4532 54.7376 60.3462 54.6474 60.2216 54.5885C60.0969 54.5296 59.9588 54.5041 59.8211 54.5146C59.6386 54.5139 59.4576 54.5481 59.2881 54.6153C59.118 54.6836 58.966 54.7899 58.8439 54.9258C58.7055 55.0855 58.6005 55.2709 58.5351 55.4713C58.4539 55.732 58.4153 56.004 58.4209 56.2769V58.8826C58.3384 58.8975 58.255 58.9073 58.1713 58.912H57.9259H57.6721C57.587 58.9073 57.5022 58.8975 57.4183 58.8826L57.4225 53.7383Z" fill="black"/>
<path d="M63.4338 54.5312H62.6427L62.6047 54.3928L64.3391 52.4668H64.4237V53.7256H65.7351C65.7631 53.851 65.7773 53.979 65.7774 54.1074C65.7756 54.2483 65.7614 54.3886 65.7351 54.527H64.4237V56.8726C64.4192 57.0969 64.4305 57.3212 64.4576 57.544C64.4701 57.6799 64.5119 57.8115 64.5802 57.93C64.6324 58.0151 64.7134 58.0791 64.8087 58.1104C64.9302 58.1416 65.0555 58.1557 65.1809 58.1524C65.2886 58.1528 65.3962 58.1444 65.5025 58.1272C65.604 58.1272 65.6928 58.0936 65.7774 58.0727C65.8229 58.2085 65.8513 58.3495 65.862 58.4923C65.862 58.6349 65.862 58.7566 65.862 58.8615C65.7229 58.8963 65.5816 58.9215 65.439 58.937C65.2817 58.9543 65.1235 58.9628 64.9652 58.9622C64.5559 58.9867 64.1515 58.863 63.8272 58.6139C63.6761 58.4622 63.5599 58.2796 63.4869 58.0789C63.4138 57.8782 63.3856 57.6642 63.4042 57.4516L63.4338 54.5312Z" fill="black"/>
<path d="M67.1523 54.5229H66.4924C66.4792 54.4605 66.4693 54.3975 66.4628 54.3341C66.4628 54.2669 66.4628 54.1956 66.4628 54.1285C66.4628 54.0613 66.4628 53.9942 66.4628 53.9271C66.4693 53.8636 66.4792 53.8006 66.4924 53.7382H68.1295V58.8783C68.0484 58.8933 67.9665 58.9031 67.8842 58.9077H67.6346H67.3977C67.3153 58.9031 67.2334 58.8933 67.1523 58.8783V54.5229ZM66.9281 52.6095C66.9149 52.5219 66.9064 52.4337 66.9027 52.3452C66.9027 52.2528 66.9027 52.1689 66.9027 52.0976C66.9027 52.0263 66.9027 51.9381 66.9027 51.8458C66.9061 51.7615 66.9146 51.6774 66.9281 51.5941L67.2115 51.5647H67.4738H67.7361L68.0111 51.5941C68.0246 51.6774 68.033 51.7615 68.0365 51.8458C68.0365 51.9381 68.0365 52.0221 68.0365 52.0976C68.0365 52.1731 68.0365 52.2528 68.0365 52.3452C68.0328 52.4337 68.0243 52.5219 68.0111 52.6095L67.7403 52.6389H67.4823H67.2115L66.9281 52.6095Z" fill="black"/>
<path d="M69.957 54.5312H69.1702L69.1279 54.3928L70.8665 52.4668H70.9596V53.7256H72.271C72.3011 53.8506 72.3153 53.9789 72.3133 54.1074C72.3115 54.2483 72.2973 54.3886 72.271 54.527H70.9596V56.8726C70.9573 57.0969 70.9686 57.3211 70.9934 57.544C71.0079 57.6795 71.0496 57.8107 71.1161 57.93C71.1693 58.0159 71.2519 58.08 71.3488 58.1104C71.4688 58.1418 71.5928 58.156 71.7168 58.1524C71.8245 58.153 71.9321 58.1446 72.0383 58.1272C72.1399 58.1272 72.2329 58.0936 72.3133 58.0727C72.3609 58.208 72.3893 58.3492 72.3979 58.4923C72.3979 58.6349 72.3979 58.7566 72.3979 58.8615C72.2587 58.8957 72.1174 58.9209 71.9749 58.937C71.8176 58.9544 71.6594 58.9628 71.5011 58.9622C71.0932 58.9857 70.6905 58.862 70.3674 58.6139C70.2152 58.4628 70.0985 58.2804 70.0254 58.0795C69.9523 57.8787 69.9246 57.6643 69.9443 57.4516L69.957 54.5312Z" fill="black"/>
<path d="M74.1281 56.5536C74.1122 56.7768 74.1414 57.001 74.214 57.2128C74.2867 57.4247 74.4013 57.62 74.5511 57.7873C74.8972 58.0696 75.3394 58.2093 75.7864 58.1775C76.2538 58.1796 76.7174 58.0942 77.1528 57.9257C77.2113 58.0432 77.2553 58.1671 77.284 58.295C77.3176 58.4326 77.3374 58.5731 77.3432 58.7146C77.108 58.8116 76.8624 58.882 76.6113 58.9244C76.3192 58.9733 76.0234 58.9971 75.7272 58.9957C75.315 59.0049 74.9048 58.9381 74.5173 58.7985C74.1946 58.6858 73.9043 58.4972 73.6712 58.2488C73.4483 58.009 73.2834 57.722 73.189 57.4096C73.0843 57.064 73.0329 56.7047 73.0367 56.3438C73.0345 55.9834 73.0844 55.6245 73.1848 55.278C73.2745 54.9644 73.427 54.6718 73.6332 54.4179C73.8392 54.1688 74.0996 53.9693 74.3946 53.8346C74.7367 53.6847 75.108 53.6116 75.4818 53.6206C75.8043 53.613 76.1246 53.6746 76.421 53.801C76.6816 53.913 76.913 54.0823 77.0978 54.2962C77.2887 54.5155 77.4327 54.771 77.5208 55.0473C77.6166 55.3543 77.6637 55.6742 77.6604 55.9956C77.6604 56.0879 77.6604 56.1844 77.6604 56.2893C77.6604 56.3942 77.6604 56.4823 77.6393 56.5536H74.1281ZM76.6917 55.8151C76.6942 55.6336 76.67 55.4526 76.6198 55.278C76.5736 55.1172 76.4976 54.9664 76.3956 54.8333C76.2981 54.703 76.1704 54.598 76.0233 54.527C75.8545 54.4465 75.6691 54.4062 75.4818 54.4095C75.3065 54.3984 75.1309 54.4262 74.9677 54.4908C74.8046 54.5554 74.6579 54.6552 74.5385 54.7829C74.2991 55.0769 74.1585 55.4379 74.1366 55.8151H76.6917Z" fill="black"/>
<path d="M79.746 56.5538C79.73 56.777 79.7592 57.0012 79.8319 57.213C79.9045 57.4249 80.0191 57.6202 80.169 57.7874C80.5164 58.0705 80.9602 58.2102 81.4085 58.1777C81.8745 58.1797 82.3367 58.0943 82.7707 57.9259C82.8309 58.0426 82.8751 58.1668 82.9018 58.2952C82.9348 58.433 82.9561 58.5734 82.9653 58.7148C82.7285 58.8114 82.4816 58.8818 82.2292 58.9246C81.9385 58.9736 81.6441 58.9975 81.3493 58.9959C80.9358 59.0051 80.5241 58.9383 80.1352 58.7987C79.8212 58.6857 79.5387 58.5005 79.3108 58.2584C79.0828 58.0162 78.9159 57.724 78.8238 57.4056C78.7191 57.06 78.6677 56.7007 78.6715 56.3398C78.6673 55.9792 78.7172 55.6201 78.8195 55.274C78.9075 54.9597 79.0602 54.6668 79.268 54.4139C79.474 54.1647 79.7343 53.9653 80.0294 53.8306C80.3702 53.6813 80.7399 53.6082 81.1124 53.6166C81.4348 53.6094 81.7551 53.671 82.0515 53.797C82.3115 53.9101 82.5427 54.0792 82.7284 54.2922C82.9178 54.5125 83.0615 54.7677 83.1514 55.0433C83.2472 55.3503 83.2943 55.6702 83.291 55.9916C83.291 56.0839 83.291 56.1804 83.291 56.2853C83.291 56.3902 83.291 56.4783 83.291 56.5496L79.746 56.5538ZM82.3096 55.8153C82.3107 55.6336 82.285 55.4526 82.2334 55.2782C82.1887 55.1177 82.1141 54.9668 82.0134 54.8335C81.9142 54.7031 81.7852 54.5981 81.6369 54.5271C81.392 54.4179 81.1196 54.3839 80.855 54.4295C80.5904 54.4751 80.3456 54.5983 80.1521 54.7831C79.9157 55.0784 79.7768 55.4389 79.7544 55.8153H82.3096Z" fill="black"/>
<path d="M87.9359 51.5185C88.0078 51.5185 88.0924 51.5185 88.1897 51.4891C88.287 51.4598 88.3632 51.4891 88.4309 51.4891C88.4985 51.4891 88.5874 51.4891 88.6762 51.4891L88.9258 51.5185V58.723C88.6475 58.8002 88.365 58.8618 88.0798 58.9077C87.7284 58.9606 87.3733 58.9859 87.0179 58.9832C86.6694 58.9844 86.3222 58.9392 85.9857 58.8489C85.6645 58.7652 85.3677 58.6076 85.1192 58.3889C84.8708 58.1702 84.6778 57.8966 84.5559 57.5901C84.4026 57.2045 84.3306 56.7918 84.3444 56.3775C84.3383 55.9933 84.4014 55.611 84.5305 55.2487C84.6435 54.9232 84.8236 54.6245 85.0593 54.3718C85.2902 54.1266 85.5716 53.9334 85.8842 53.8053C86.2221 53.6671 86.5848 53.5985 86.9502 53.6039C87.1274 53.6035 87.3042 53.6175 87.479 53.6459C87.638 53.667 87.795 53.7007 87.9486 53.7466L87.9359 51.5185ZM87.9359 54.5942C87.7992 54.5401 87.6575 54.4993 87.5129 54.4725C87.3464 54.4463 87.178 54.4336 87.0095 54.4347C86.7612 54.4288 86.5149 54.4806 86.2903 54.5858C86.0928 54.6844 85.9217 54.8283 85.7911 55.0054C85.6548 55.1889 85.5557 55.397 85.4992 55.618C85.4334 55.8715 85.4007 56.1324 85.402 56.3943C85.3811 56.6404 85.4109 56.8882 85.4894 57.1226C85.5679 57.357 85.6936 57.5731 85.8588 57.758C86.191 58.0498 86.6255 58.2005 87.0687 58.1776C87.2312 58.1783 87.3936 58.1699 87.5552 58.1524C87.6883 58.1385 87.8199 58.1132 87.9486 58.0769L87.9359 54.5942Z" fill="black"/>
<path d="M90.8422 54.5229H90.1865C90.1712 54.4609 90.1613 54.3977 90.1568 54.3341C90.1389 54.1948 90.1389 54.0538 90.1568 53.9145C90.1613 53.8508 90.1712 53.7876 90.1865 53.7256H91.8236V58.8657C91.7411 58.8807 91.6577 58.8905 91.574 58.8951H91.3286H91.0917C91.008 58.8905 90.9247 58.8807 90.8422 58.8657V54.5229ZM90.6222 52.6095C90.6047 52.5225 90.5962 52.4339 90.5968 52.3452C90.5968 52.2528 90.5968 52.1689 90.5968 52.0976C90.5968 52.0263 90.5968 51.9381 90.5968 51.8458C90.596 51.7612 90.6045 51.6768 90.6222 51.5941L90.9014 51.5647H91.1679H91.4302L91.7009 51.5941C91.7144 51.6774 91.7229 51.7615 91.7263 51.8458C91.7263 51.9381 91.7263 52.0221 91.7263 52.0976C91.7263 52.1731 91.7263 52.2528 91.7263 52.3452C91.7226 52.4337 91.7142 52.5219 91.7009 52.6095L91.4344 52.6389H91.1764H90.9014L90.6222 52.6095Z" fill="black"/>
<path d="M93.4184 51.5186L93.668 51.4893C93.7569 51.4893 93.8415 51.4893 93.9134 51.4893C93.9853 51.4893 94.0699 51.4893 94.163 51.4893L94.4083 51.5186V57.3091C94.4053 57.4506 94.4224 57.5919 94.4591 57.7287C94.4842 57.8214 94.5322 57.9065 94.5987 57.9763C94.6537 58.0299 94.7225 58.0677 94.7975 58.0854C94.8796 58.1025 94.9633 58.1109 95.0471 58.1105H95.2544C95.3202 58.1056 95.3854 58.0944 95.449 58.077C95.5136 58.3264 95.5449 58.5831 95.5421 58.8406C95.4312 58.8768 95.3159 58.8979 95.1994 58.9036C95.064 58.9036 94.9371 58.9036 94.8229 58.9036C94.6386 58.9042 94.455 58.8802 94.2772 58.8323C94.1142 58.7878 93.9627 58.7091 93.833 58.6015C93.6992 58.4886 93.5959 58.3444 93.5326 58.1819C93.4507 57.9676 93.4119 57.7396 93.4184 57.5105V51.5186Z" fill="black"/>
<path d="M99.1886 55.4921C99.2086 55.3383 99.1914 55.182 99.1384 55.036C99.0855 54.8901 98.9983 54.7588 98.884 54.6529C98.6235 54.4838 98.3148 54.4028 98.0041 54.4221C97.7828 54.4218 97.5619 54.4415 97.3442 54.4809C97.1409 54.515 96.9403 54.5627 96.7435 54.6235C96.6108 54.3819 96.5452 54.1097 96.5531 53.8347C96.8001 53.756 97.0534 53.6984 97.3103 53.6626C97.5735 53.623 97.8394 53.6034 98.1056 53.6039C98.6559 53.5657 99.2015 53.7267 99.6412 54.0571C99.8299 54.2484 99.9746 54.478 100.065 54.7301C100.156 54.9822 100.19 55.2507 100.166 55.5173V58.7314C99.9331 58.786 99.6455 58.8405 99.3197 58.8993C98.98 58.955 98.6362 58.983 98.2918 58.9832C97.9916 58.9872 97.692 58.9562 97.3992 58.8909C97.1555 58.8426 96.9249 58.7439 96.7223 58.6013C96.5403 58.4685 96.3949 58.2925 96.2993 58.0894C96.1915 57.8538 96.1395 57.5969 96.147 57.3383C96.1416 57.0758 96.2027 56.8161 96.3247 56.5831C96.4403 56.3689 96.6038 56.1837 96.8027 56.0418C97.0138 55.8941 97.2503 55.786 97.5007 55.7229C97.7766 55.6499 98.0612 55.6146 98.3468 55.618C98.5625 55.618 98.7402 55.618 98.8756 55.618C99.0109 55.618 99.1294 55.618 99.2267 55.6557L99.1886 55.4921ZM99.1886 56.4656C99.0871 56.4656 98.9602 56.4362 98.8036 56.4236C98.6471 56.411 98.516 56.4026 98.4102 56.4026C98.0755 56.3839 97.7428 56.4643 97.4542 56.6334C97.345 56.7148 97.2581 56.8218 97.2012 56.9449C97.1444 57.068 97.1193 57.2032 97.1284 57.3383C97.1179 57.5023 97.1562 57.6657 97.2384 57.8083C97.3073 57.9174 97.4035 58.0071 97.5176 58.0684C97.6316 58.1291 97.7568 58.1662 97.8857 58.1775C98.021 58.1775 98.1479 58.1775 98.2664 58.1775C98.4275 58.1773 98.5884 58.1689 98.7486 58.1524C98.8913 58.1374 99.0327 58.1121 99.1717 58.0768L99.1886 56.4656Z" fill="black"/>
<path d="M101.663 51.5186L101.909 51.4893C102.002 51.4893 102.082 51.4893 102.158 51.4893C102.234 51.4893 102.315 51.4893 102.408 51.4893L102.662 51.5186V54.5062C102.729 54.3991 102.805 54.298 102.89 54.2041C102.987 54.0915 103.1 53.9927 103.224 53.9103C103.363 53.8148 103.516 53.7398 103.677 53.688C103.862 53.631 104.054 53.6027 104.248 53.604C104.491 53.5842 104.736 53.6192 104.964 53.7064C105.192 53.7936 105.397 53.9307 105.564 54.1076C105.878 54.5422 106.027 55.0724 105.987 55.6055V58.8616C105.904 58.8765 105.821 58.8864 105.737 58.891H105.492H105.242C105.16 58.8864 105.078 58.8766 104.997 58.8616V55.8783C105.024 55.5131 104.941 55.1483 104.76 54.8293C104.677 54.7186 104.567 54.63 104.441 54.5714C104.314 54.5129 104.176 54.4861 104.037 54.4936C103.857 54.4939 103.679 54.5266 103.512 54.5901C103.342 54.6538 103.189 54.7575 103.068 54.8922C102.93 55.0469 102.826 55.2284 102.763 55.4251C102.685 55.685 102.648 55.9554 102.653 56.2265V58.8616C102.569 58.8768 102.485 58.8866 102.399 58.891H102.15H101.904C101.821 58.8866 101.737 58.8768 101.655 58.8616L101.663 51.5186Z" fill="black"/>
<path d="M108.258 56.5537C108.242 56.7769 108.272 57.001 108.344 57.2129C108.417 57.4247 108.532 57.62 108.681 57.7873C109.027 58.0705 109.47 58.2103 109.917 58.1775C110.383 58.1796 110.845 58.0942 111.279 57.9258C111.339 58.0424 111.383 58.1666 111.41 58.295C111.443 58.4329 111.464 58.5732 111.473 58.7146C111.238 58.8112 110.993 58.8816 110.742 58.9244C110.45 58.9733 110.154 58.9972 109.857 58.9958C109.444 59.005 109.032 58.9381 108.643 58.7985C108.322 58.6835 108.032 58.4953 107.797 58.2489C107.576 58.0088 107.412 57.7218 107.319 57.4097C107.215 57.0641 107.163 56.7047 107.167 56.3439C107.175 55.9878 107.233 55.6347 107.34 55.2949C107.428 54.9805 107.581 54.6876 107.789 54.4347C107.995 54.1856 108.255 53.9862 108.55 53.8515C108.892 53.7015 109.264 53.6285 109.638 53.6375C109.96 53.6303 110.28 53.6918 110.577 53.8179C110.837 53.9309 111.068 54.1001 111.254 54.313C111.443 54.5334 111.587 54.7886 111.677 55.0641C111.772 55.3711 111.819 55.691 111.816 56.0124C111.816 56.1047 111.816 56.2012 111.816 56.3061C111.816 56.411 111.816 56.4991 111.795 56.5705L108.258 56.5537ZM110.822 55.8152C110.823 55.6334 110.797 55.4525 110.746 55.2781C110.701 55.1175 110.627 54.9667 110.526 54.8333C110.427 54.703 110.298 54.598 110.149 54.527C109.982 54.4461 109.798 54.4058 109.612 54.4095C109.436 54.3987 109.26 54.4266 109.096 54.4912C108.932 54.5557 108.785 54.6554 108.665 54.783C108.428 55.0783 108.289 55.4387 108.267 55.8152H110.822Z" fill="black"/>
<path d="M113.128 53.7383L113.343 53.7089H113.559H113.766L113.974 53.7383C114.001 53.877 114.021 54.0171 114.033 54.1579C114.052 54.297 114.064 54.4371 114.067 54.5775C114.138 54.4535 114.223 54.338 114.32 54.2334C114.427 54.1185 114.548 54.0171 114.68 53.9313C114.987 53.7266 115.35 53.6197 115.721 53.625C115.964 53.6052 116.209 53.6402 116.437 53.7274C116.665 53.8146 116.87 53.9517 117.036 54.1285C117.347 54.5649 117.496 55.0938 117.459 55.6265V58.8826C117.375 58.8975 117.291 58.9073 117.206 58.912H116.952H116.706C116.623 58.9073 116.539 58.8975 116.457 58.8826V55.8993C116.483 55.5361 116.407 55.1728 116.237 54.8503C116.159 54.738 116.053 54.6479 115.929 54.589C115.805 54.5301 115.667 54.5045 115.53 54.5146C115.346 54.5136 115.164 54.5478 114.993 54.6153C114.831 54.6864 114.686 54.7924 114.57 54.9258C114.433 55.0865 114.328 55.2716 114.261 55.4713C114.18 55.732 114.141 56.004 114.147 56.2769V58.8826C114.065 58.8975 113.981 58.9073 113.897 58.912H113.652H113.398C113.315 58.9076 113.231 58.8978 113.149 58.8826L113.128 53.7383Z" fill="black"/>
<path d="M122.286 51.5186L122.54 51.4893C122.633 51.4893 122.713 51.4893 122.781 51.4893C122.849 51.4893 122.938 51.4893 123.031 51.4893L123.276 51.5186V58.7232C122.998 58.8007 122.715 58.8624 122.43 58.9078C122.079 58.9607 121.724 58.986 121.368 58.9833C121.02 58.9845 120.672 58.9393 120.336 58.849C120.024 58.7633 119.735 58.61 119.49 58.4001C119.238 58.1809 119.041 57.9065 118.915 57.5986C118.761 57.213 118.689 56.8003 118.703 56.386C118.697 56.0018 118.76 55.6196 118.889 55.2573C119.002 54.9317 119.182 54.633 119.418 54.3803C119.649 54.1351 119.93 53.942 120.243 53.8138C120.578 53.6781 120.938 53.6111 121.301 53.6166C121.478 53.6162 121.655 53.6302 121.829 53.6586C121.988 53.6797 122.145 53.7134 122.299 53.7593L122.286 51.5186ZM122.286 54.5943C122.15 54.5402 122.008 54.4995 121.863 54.4726C121.697 54.4464 121.528 54.4338 121.36 54.4348C121.113 54.4285 120.868 54.4803 120.645 54.5859C120.445 54.6833 120.273 54.8273 120.141 55.0055C120.005 55.1891 119.906 55.3971 119.85 55.6181C119.784 55.8717 119.751 56.1326 119.752 56.3944C119.731 56.6405 119.761 56.8883 119.84 57.1227C119.918 57.3571 120.044 57.5733 120.209 57.7581C120.541 58.0499 120.976 58.2006 121.419 58.1777C121.582 58.1784 121.744 58.17 121.905 58.1525C122.039 58.1386 122.17 58.1134 122.299 58.077L122.286 54.5943Z" fill="black"/>
<path d="M124.82 53.7381L125.074 53.7087H125.315H125.569L125.823 53.7381V56.5536C125.816 56.8221 125.846 57.0902 125.912 57.3509C125.957 57.5372 126.052 57.708 126.187 57.846C126.308 57.9694 126.462 58.0566 126.631 58.0978C126.828 58.1475 127.032 58.1715 127.236 58.1691C127.533 58.1754 127.83 58.1372 128.116 58.0558V53.7381L128.361 53.7087H128.611H128.856L129.105 53.7381V58.7188C128.869 58.7859 128.589 58.8488 128.259 58.9076C127.925 58.9706 127.585 59.0016 127.244 58.9999C126.932 59.0008 126.62 58.9727 126.313 58.916C126.031 58.8645 125.765 58.7449 125.539 58.5677C125.301 58.376 125.12 58.1236 125.015 57.8376C124.868 57.4344 124.802 57.0069 124.82 56.5788V53.7381Z" fill="black"/>
<path d="M130.607 57.9469C130.801 58.0261 131.002 58.0851 131.208 58.1231C131.423 58.1649 131.641 58.186 131.859 58.1861C132.009 58.1878 132.158 58.1723 132.304 58.1399C132.434 58.1102 132.558 58.0592 132.672 57.9889C132.773 57.9251 132.86 57.8407 132.925 57.7413C132.988 57.6451 133.02 57.5327 133.019 57.4182C133.023 57.3104 133.001 57.2031 132.953 57.1063C132.905 57.0095 132.833 56.9263 132.744 56.8643C132.651 56.8017 132.552 56.7497 132.447 56.7091L132.092 56.5832L131.737 56.4531C131.388 56.342 131.068 56.1574 130.798 55.9118C130.697 55.8028 130.62 55.6751 130.57 55.5361C130.519 55.397 130.498 55.2495 130.506 55.102C130.497 54.8962 130.537 54.6911 130.622 54.5032C130.707 54.3153 130.835 54.1497 130.996 54.0194C131.413 53.7188 131.921 53.5705 132.435 53.5998C132.695 53.5996 132.954 53.6249 133.209 53.6754C133.432 53.7195 133.653 53.777 133.869 53.8474C133.857 53.9893 133.831 54.1298 133.793 54.267C133.757 54.3932 133.711 54.5166 133.657 54.6363C133.509 54.5859 133.332 54.5314 133.124 54.481C132.908 54.4291 132.687 54.4038 132.464 54.4055C132.238 54.4023 132.013 54.4466 131.804 54.5356C131.714 54.573 131.637 54.6377 131.586 54.7205C131.534 54.8033 131.51 54.9 131.517 54.9971C131.513 55.0979 131.536 55.1978 131.584 55.2866C131.632 55.3694 131.699 55.4399 131.779 55.4922C131.864 55.5519 131.957 55.6012 132.054 55.6391L132.392 55.7608L132.837 55.9076C132.995 55.9592 133.15 56.0238 133.298 56.1007C133.437 56.1686 133.564 56.261 133.67 56.3734C133.78 56.4962 133.867 56.6386 133.924 56.793C133.999 56.9961 134.032 57.2118 134.023 57.4278C134.014 57.6439 133.961 57.8559 133.869 58.0518C133.77 58.2553 133.625 58.4333 133.446 58.5721C133.246 58.7242 133.019 58.8381 132.777 58.9078C132.495 58.9912 132.201 59.0322 131.906 59.0295C131.622 59.0334 131.339 59.0109 131.06 58.9623C130.83 58.9234 130.604 58.8659 130.383 58.7903C130.397 58.6479 130.425 58.5073 130.468 58.3707C130.485 58.2322 130.535 58.0812 130.607 57.9469Z" fill="black"/>
<path d="M105.576 18.0051C105.418 18.0046 105.26 18.0354 105.114 18.0959C104.967 18.1565 104.834 18.2454 104.723 18.3576C104.611 18.4698 104.523 18.6029 104.464 18.7491C104.405 18.8954 104.376 19.0519 104.379 19.2094C104.392 24.7881 102.465 30.2005 98.9221 34.5332V38.0872C101.419 35.6079 103.398 32.6633 104.744 29.4228C106.09 26.1823 106.777 22.7099 106.765 19.2052C106.767 19.0489 106.737 18.8938 106.678 18.7488C106.62 18.6039 106.532 18.4718 106.422 18.3603C106.312 18.2489 106.18 18.1601 106.035 18.0991C105.89 18.0382 105.734 18.0062 105.576 18.0051Z" fill="#00B259"/>
<path d="M132.447 19.2092C132.447 18.5337 132.414 17.8623 132.363 17.1952C131.517 10.7375 128.661 6.25618 124.274 3.55396C128.013 7.92735 130.064 13.4755 130.062 19.2092C130.069 24.6205 129.178 29.996 127.426 35.1205C127.341 35.3783 127.349 35.6572 127.449 35.9098C127.548 36.1623 127.733 36.3728 127.972 36.5052C129.283 34.9469 130.317 33.1789 131.03 31.2769C131.976 27.3231 132.452 23.2729 132.447 19.2092Z" fill="#00B259"/>
<path d="M105.576 15.2818C106.167 15.2841 106.75 15.4189 107.281 15.6762C107.812 15.9334 108.278 16.3063 108.643 16.7672V13.7041C107.678 13.1783 106.591 12.9107 105.49 12.9278C104.389 12.9448 103.311 13.2458 102.363 13.8013C101.414 14.3567 100.628 15.1474 100.081 16.0956C99.5343 17.0438 99.2456 18.1168 99.2436 19.2092C99.2414 20.3688 99.1352 21.5259 98.9263 22.6667V29.6321C100.702 26.4406 101.632 22.8544 101.629 19.2092C101.628 18.6942 101.73 18.184 101.927 17.7079C102.125 17.2317 102.416 16.7989 102.782 16.4341C103.149 16.0693 103.584 15.7798 104.064 15.5821C104.543 15.3844 105.057 15.2823 105.576 15.2818Z" fill="#00B259"/>
<path d="M108.643 33.0268V26.1831C107.104 32.2158 103.702 37.6204 98.9136 41.6412V42.9461H101.029C104.191 40.1601 106.777 36.7912 108.643 33.0268Z" fill="#00B259"/>
<path d="M108.758 39.6061C108.537 39.5541 108.305 39.5659 108.091 39.6403C107.876 39.7147 107.688 39.8484 107.548 40.0257C106.757 41.0407 105.909 42.0115 105.01 42.9335H110.344C110.065 42.1354 109.835 41.3213 109.654 40.4956C109.604 40.2787 109.494 40.0802 109.335 39.9229C109.176 39.7655 108.976 39.6557 108.758 39.6061Z" fill="#00B259"/>
<path d="M114.917 8.59752C117.599 9.29405 119.718 10.7627 121.064 13.3264C120.268 11.2433 119.053 9.34252 117.493 7.73968C115.933 6.13683 114.061 4.86541 111.99 4.00272C109.92 3.14003 107.694 2.7041 105.448 2.72145C103.202 2.73879 100.983 3.20904 98.9263 4.1036V6.7261C101.466 5.38777 104.357 4.84875 107.214 5.18082C110.071 5.5129 112.758 6.70031 114.917 8.58493V8.59752Z" fill="#00B259"/>
<path d="M119.807 33.0225C120.099 32.1833 120.357 31.3441 120.598 30.5049C119.773 31.834 118.616 32.9295 117.239 33.6855C117.12 34.4166 117.059 35.156 117.057 35.8967C117.057 38.0577 117.558 40.1897 118.521 42.1278C119.301 41.9274 120.07 41.6837 120.822 41.3977C119.446 38.8222 119.084 35.8311 119.807 33.0057V33.0225Z" fill="#00B259"/>
<path d="M105.572 10.192C106.62 10.1941 107.659 10.3773 108.643 10.7332V8.25341C106.999 7.78526 105.269 7.69308 103.584 7.9838C101.899 8.27451 100.302 8.94056 98.9136 9.93181V13.0662C99.7635 12.1574 100.794 11.4329 101.94 10.9382C103.086 10.4435 104.322 10.1895 105.572 10.192Z" fill="#00B259"/>
<path d="M114.346 34.7849C113.557 34.964 112.755 35.0805 111.947 35.1332C111.947 35.3933 111.922 35.6493 111.922 35.9052C111.925 38.2967 112.38 40.6664 113.263 42.8916C114.109 42.8454 114.955 42.7741 115.755 42.665C114.803 40.5349 114.31 38.231 114.308 35.9011C114.308 35.5318 114.32 35.1542 114.346 34.7849Z" fill="#00B259"/>
<path d="M124.748 34.4365L124.769 34.3903C124.775 34.373 124.782 34.3561 124.791 34.34C126.341 29.8097 127.185 25.0708 127.291 20.2876C127.291 19.9267 127.291 19.5659 127.291 19.1966C127.289 15.5173 126.338 11.8996 124.528 8.68785C122.718 5.47608 120.11 2.77702 116.952 0.847501C115.013 0.497932 113.046 0.323783 111.076 0.327198H109.033C113.49 1.1332 117.522 3.46403 120.426 6.91405C123.33 10.3641 124.922 14.7149 124.926 19.2092C124.926 19.5491 124.926 19.8764 124.926 20.2288C124.873 22.5621 124.63 24.8873 124.198 27.1816C123.81 29.3412 123.254 31.4679 122.536 33.5428C122.51 33.6015 122.493 33.6602 122.472 33.7232C122.461 33.7547 122.451 33.787 122.443 33.8197C121.904 35.9948 122.23 38.2921 123.352 40.2354C124.051 39.8543 124.723 39.4253 125.362 38.9514C124.854 38.0102 124.585 36.9602 124.579 35.8925C124.579 35.4024 124.636 34.9139 124.748 34.4365Z" fill="#00B259"/>
<path d="M98.9263 0.327393V1.19597C99.9638 0.815924 101.032 0.525324 102.12 0.327393H98.9263Z" fill="#00B259"/>
<path d="M92.7796 33.4758V29.7708C90.2816 33.1738 86.9265 35.8665 83.0499 37.5795V40.1223C86.7555 38.6602 90.0812 36.3884 92.7796 33.4758Z" fill="#00B259"/>
<path d="M92.7796 40.2648V37.1724C89.985 39.6881 86.7294 41.6482 83.1895 42.9461H88.8243C90.2084 42.1516 91.5306 41.2553 92.7796 40.2648Z" fill="#00B259"/>
<path d="M92.7796 24.2947V13.104C92.4733 13.8487 92.3153 14.6453 92.3143 15.4496C92.3236 18.7366 91.4768 21.9703 89.8559 24.8374C88.235 27.7044 85.895 30.1076 83.0626 31.814V34.533C87.3718 32.3033 90.7957 28.6957 92.7796 24.2947Z" fill="#00B259"/>
<path d="M92.7796 2.64778V0.327393H92.1578C90.063 1.21853 88.175 2.52667 86.6105 4.17081C85.0461 5.81496 83.8385 7.76012 83.0626 9.88589V20.8417C83.9734 19.1823 84.4491 17.3224 84.4459 15.433C84.4541 12.7339 85.2439 10.094 86.7213 7.8274C88.1987 5.5608 90.3016 3.76294 92.7796 2.64778Z" fill="#00B259"/>
<path d="M89.573 15.454C89.5731 14.1499 89.86 12.8615 90.4139 11.6788C90.9677 10.496 91.7751 9.4474 92.7796 8.60609V5.71924C91.0797 6.71993 89.6707 8.14109 88.6904 9.84375C87.7102 11.5464 87.1922 13.4723 87.1871 15.433C87.1926 19.1523 85.7091 22.7216 83.0626 25.3565V28.4868C85.0873 26.9593 86.7284 24.9881 87.8578 22.7272C88.9872 20.4664 89.5743 17.9771 89.573 15.454Z" fill="#00B259"/>
<path d="M86.8318 0.327393H83.2276L83.0668 0.495233V4.17093C84.1345 2.72152 85.4019 1.42775 86.8318 0.327393Z" fill="#00B259"/>
<path d="M3.76923 0.482666V20.1409H25.1113V0.482666H28.1613V42.8245H25.1113V23.1663H3.76923V42.8245H0.736084V0.482666H3.76923Z" fill="#222222" stroke="#222222" stroke-width="2.3" stroke-miterlimit="10"/>
<path d="M54.6305 24.6641C54.6305 18.6134 51.5819 15.5895 45.4845 15.5923H36.3386V12.5796H45.4845C53.6152 12.5796 57.6806 16.6119 57.6806 24.6767V42.8244H55.5654L54.6474 39.7991C52.6169 41.8187 49.5682 42.8272 45.5015 42.8244H42.4514C36.3541 42.8244 33.3054 39.7991 33.3054 33.7484C33.3054 27.6978 36.3484 24.6697 42.4345 24.6641H45.4845C49.5485 24.6641 52.5971 25.6725 54.6305 27.6894V24.6641ZM45.4845 39.7697C49.5485 39.7697 52.5971 38.7612 54.6305 36.7444V30.7273C52.6 28.7076 49.5513 27.6992 45.4845 27.702H42.4345C38.3705 27.702 36.3386 29.7175 36.3386 33.7484C36.3386 37.7794 38.3705 39.7963 42.4345 39.7991L45.4845 39.7697Z" fill="#222222" stroke="#222222" stroke-width="2.3" stroke-miterlimit="10"/>
<path d="M64.7537 42.8244V12.5796H66.8689L67.7826 15.6049C69.8188 13.5852 72.8689 12.5768 76.9328 12.5796V15.6049C72.8661 15.6049 69.816 16.612 67.7826 18.626V42.8244H64.7537Z" fill="#222222" stroke="#222222" stroke-width="2.3" stroke-miterlimit="10"/>
</g>
<defs>
<clipPath id="clip0">
<rect width="134" height="59" fill="white"/>
</clipPath>
</defs>
</svg>
