<svg id="Layer_1" data-name="Layer 1" xmlns="http://www.w3.org/2000/svg" viewBox="0 0 147.91 73.7"><defs><style>.cls-1,.cls-2{fill:#1d3383;}.cls-2{fill-rule:evenodd;}</style></defs><path class="cls-1" d="M134.68,40.91h-5v1h1.85v6.32h1.26V41.87h1.88Zm-6.4,3H125.6V41.87h3.14v-1h-4.4v7.28h4.4v-1H125.6V44.89h2.68Zm-10.8-3h-1.6v7.28h1.27v-4.8h0l1.57,4.81h.86l1.56-4.78h0v4.77h1.27V40.91h-1.59l-1.69,5.73h0Zm-6,1.78h0l.92,2.9h-1.87Zm1.78,5.5h1.33l-2.43-7.28h-1.3l-2.44,7.28h1.33l.52-1.64h2.47Zm-5.91-4.27h-2.68V41.87h3.13v-1h-4.4v7.28h4.4v-1h-3.13V44.89h2.68Zm-5.12-3h-5v1h1.85v6.32h1.26V41.87h1.88Zm-9.56,1h1.17a1,1,0,0,1,.82.34,1.35,1.35,0,0,1,.27.89,1.21,1.21,0,0,1-.27.87,1,1,0,0,1-.82.31H92.64Zm1.27,3.37a1,1,0,0,1,.77.32,1.34,1.34,0,0,1,.27.9v.65c0,.22,0,.43,0,.64a1.27,1.27,0,0,0,.07.44h1.31v-.1a1,1,0,0,1-.11-.42,5.07,5.07,0,0,1,0-.55v-.67a2.16,2.16,0,0,0-.26-1.1,1.43,1.43,0,0,0-.85-.63A1.73,1.73,0,0,0,96.17,43a2,2,0,0,0-.62-1.57,2.54,2.54,0,0,0-1.74-.56H91.37v7.28h1.27V45.24Zm-5.44.06a2.52,2.52,0,0,1-.38,1.5,1.2,1.2,0,0,1-1,.54A1.24,1.24,0,0,1,86,46.8a2.6,2.6,0,0,1-.37-1.5V43.78A2.54,2.54,0,0,1,86,42.31a1.29,1.29,0,0,1,2.1,0,2.54,2.54,0,0,1,.38,1.47Zm1.26-1.51A3.08,3.08,0,0,0,89,41.64a2.68,2.68,0,0,0-3.88,0,3.08,3.08,0,0,0-.75,2.15v1.52a3.1,3.1,0,0,0,.75,2.17,2.72,2.72,0,0,0,3.89,0,3.09,3.09,0,0,0,.74-2.17ZM81.65,45.3a2.6,2.6,0,0,1-.38,1.5,1.29,1.29,0,0,1-2.1,0,2.6,2.6,0,0,1-.38-1.5V43.78a2.54,2.54,0,0,1,.37-1.47,1.29,1.29,0,0,1,2.1,0,2.47,2.47,0,0,1,.39,1.47Zm1.26-1.51a3.08,3.08,0,0,0-.75-2.15,2.69,2.69,0,0,0-3.89,0,3.07,3.07,0,0,0-.74,2.15v1.52a3.14,3.14,0,0,0,.74,2.17,2.52,2.52,0,0,0,2,.82,2.47,2.47,0,0,0,1.93-.82,3.1,3.1,0,0,0,.75-2.17Zm-7-4.7H74.64v6.74h0l-3.46-6.75H69.89v9.1h1.26V41.44l0,0,3.45,6.77H75.9ZM129.58,29h0l.92,2.9h-1.87Zm1.79,5.5h1.32l-2.43-7.28H129l-2.44,7.28h1.33l.52-1.64h2.47Zm-7.18-2.25a1.7,1.7,0,0,1-.27,1,.81.81,0,0,1-.69.39,1,1,0,0,1-.77-.32,1.44,1.44,0,0,1-.29-1H121v0a2.06,2.06,0,0,0,.59,1.65,2.47,2.47,0,0,0,1.7.56,2.13,2.13,0,0,0,1.6-.64,2.36,2.36,0,0,0,.62-1.71v-5h-1.26Zm-7.37-2.1H114v1h2.79Zm-5.46,3.2a1.35,1.35,0,0,1-1,.3,1.47,1.47,0,0,1-1-.31,1.19,1.19,0,0,1-.37-1h-1.22v0a1.88,1.88,0,0,0,.68,1.67,3,3,0,0,0,1.87.55,2.88,2.88,0,0,0,1.84-.54,1.79,1.79,0,0,0,.69-1.48,1.75,1.75,0,0,0-.55-1.4,4.37,4.37,0,0,0-1.68-.82,3.05,3.05,0,0,1-1.13-.52,1,1,0,0,1-.27-.73,1,1,0,0,1,.28-.74,1.1,1.1,0,0,1,.85-.3,1.06,1.06,0,0,1,.86.35,1.4,1.4,0,0,1,.29.93h1.22v0a2.08,2.08,0,0,0-.61-1.63,2.55,2.55,0,0,0-1.77-.58,2.58,2.58,0,0,0-1.74.56,1.8,1.8,0,0,0-.65,1.46,1.77,1.77,0,0,0,.54,1.4,4.59,4.59,0,0,0,1.73.79,2.84,2.84,0,0,1,1.06.54.91.91,0,0,1,.29.72,1,1,0,0,1-.31.76m-6.22-6.13V32a1.82,1.82,0,0,1-.38,1.22,1.34,1.34,0,0,1-1.05.44,1.31,1.31,0,0,1-1-.44,1.77,1.77,0,0,1-.39-1.22V27.22H101V32a2.47,2.47,0,0,0,.74,1.92,3.1,3.1,0,0,0,3.9,0A2.47,2.47,0,0,0,106.4,32V27.22Zm-8.37,1a1.22,1.22,0,0,1,1,.58,2.42,2.42,0,0,1,.4,1.44v1.31a2.49,2.49,0,0,1-.4,1.46,1.21,1.21,0,0,1-1,.57h-1V28.18Zm0,6.32a2.54,2.54,0,0,0,1.92-.83,3.06,3.06,0,0,0,.77-2.15V30.21a3.06,3.06,0,0,0-.77-2.15,2.52,2.52,0,0,0-1.92-.84H94.46V34.5Zm-4.16-7.28H91.35V34.5h1.26Zm-6.58,1H87.2a1,1,0,0,1,.82.33,1.33,1.33,0,0,1,.28.9,1.26,1.26,0,0,1-.27.87,1.05,1.05,0,0,1-.83.31H86Zm1.27,3.37a1,1,0,0,1,.77.32,1.33,1.33,0,0,1,.27.89v.66c0,.22,0,.43,0,.64a1.32,1.32,0,0,0,.07.44h1.31v-.1a1.14,1.14,0,0,1-.11-.42,5.07,5.07,0,0,1,0-.55v-.67a2.12,2.12,0,0,0-.26-1.11,1.43,1.43,0,0,0-.85-.62,1.91,1.91,0,0,0,.8-.67,1.86,1.86,0,0,0,.28-1,2,2,0,0,0-.63-1.57,2.54,2.54,0,0,0-1.74-.56H84.77V34.5H86V31.55Zm-7-2.55h0l.92,2.9H79.42Zm1.78,5.5h1.33L81,27.22h-1.3L77.27,34.5H78.6l.52-1.64h2.47Zm-6.2-9.1H74.64v4.12H71.16V25.4H69.89v9.1h1.27v-4h3.48v4h1.27Z"/><path class="cls-1" d="M31.66,46.84a3,3,0,0,1-.06.74,2.16,2.16,0,0,0-.57,0,2.75,2.75,0,0,0-.57,0,4.75,4.75,0,0,1-.06-.84l.25.3s.14-.33.2-.34h0a.25.25,0,0,0,.17,0,.27.27,0,0,0,.18,0c.07,0,.11.16.14.22a.81.81,0,0,0,.06.13l.25-.3Z"/><path class="cls-2" d="M40.19,43.09a4.85,4.85,0,0,1-1.14.11c-.76,0-1.17-.37-1.93-.32a2.63,2.63,0,0,0-1.08.2,1.61,1.61,0,0,0-.93.84,1.4,1.4,0,0,0,0,1.15,1.63,1.63,0,0,0,.76.81,2.49,2.49,0,0,0,1.37.33,5.78,5.78,0,0,0,2-.27c.65-.15,1-.31,1.64-.49l1.77-.5a6.6,6.6,0,0,1,.76-.64,5.42,5.42,0,0,1,.89-.54l0-.22c-.68.13-1.06.22-1.72.4-.83.23-1.28.44-2.1.69a18.39,18.39,0,0,1-1.9.51,4.46,4.46,0,0,1-1.09.14c-.38,0-.66,0-.95-.21a.63.63,0,0,1-.29-.39.42.42,0,0,1,0-.33.32.32,0,0,1,.27-.14.3.3,0,0,1,.31.21.28.28,0,0,1-.09.32,1.08,1.08,0,0,0,.4,0,.78.78,0,0,0,.46-.14.55.55,0,0,0,.19-.4.5.5,0,0,0-.25-.44.54.54,0,0,0-.32-.11.61.61,0,0,1,.51,0,.51.51,0,0,1,.21.17.52.52,0,0,1,.12.43,2.67,2.67,0,0,0,.83-.21,3.5,3.5,0,0,0,.73-.47,3.88,3.88,0,0,0,.62-.52"/><path class="cls-2" d="M31,47.86a.73.73,0,0,0-.56.15.52.52,0,0,0-.1.11.33.33,0,0,0,0,.32c.11.24.4.08.66.08s.54.16.65-.08a.33.33,0,0,0,0-.32.52.52,0,0,0-.1-.11.72.72,0,0,0-.55-.15"/><path class="cls-2" d="M43,49.14c-.13.14-.25.21-.3.39a1.1,1.1,0,0,0,0,.34l0,.26a.71.71,0,0,1,0,.29.55.55,0,0,1-.11.23l-.5.53a.67.67,0,0,0,.1-.31.47.47,0,0,0,0-.31L42,50.14c0-.06,0-.11,0-.18a1.13,1.13,0,0,1,0-.15l-.28.29a.74.74,0,0,0-.14.22.48.48,0,0,0,0,.29l.17.51a.36.36,0,0,1,0,.23.66.66,0,0,1-.17.29l-.5.52a.68.68,0,0,0,.11-.3.58.58,0,0,0,0-.32l-.16-.39c0-.07,0-.11,0-.19a1.13,1.13,0,0,1,0-.15l-.28.29a.5.5,0,0,0-.13.22.41.41,0,0,0,0,.29l.18.5a.39.39,0,0,1,0,.24.55.55,0,0,1-.17.28l-.5.53a.73.73,0,0,0,.09-.23.75.75,0,0,0,0-.3l-.12-.43a2.54,2.54,0,0,1-.28.29,2.78,2.78,0,0,1-.43.31.91.91,0,0,1-.14.41.88.88,0,0,1-.39.35.94.94,0,0,1-.65.13.6.6,0,0,0,.07-.35.49.49,0,0,0-.11-.31.38.38,0,0,0-.25-.13.94.94,0,0,1,.06.15c0,.07,0,.11.06.18a1.85,1.85,0,0,1-.34.4,2.13,2.13,0,0,1-.42.3H37a1.14,1.14,0,0,0-.26,0,.62.62,0,0,0-.29.12.65.65,0,0,0-.29.3,1,1,0,0,1-.06-.46,1,1,0,0,1,.26-.73.88.88,0,0,1,.38-.28,1,1,0,0,0-.66.36.83.83,0,0,0-.23.48,1.18,1.18,0,0,0-.38.16,1.3,1.3,0,0,0-.41.32.61.61,0,0,1-.07-.48.64.64,0,0,1,.17-.3.55.55,0,0,1,.19-.12,1.43,1.43,0,0,1,.23-.37,1.44,1.44,0,0,1,.58-.4.76.76,0,0,0-.47.06.87.87,0,0,0-.37.29,1,1,0,0,0-.21.38,1.71,1.71,0,0,0-.39.17,1.5,1.5,0,0,0-.34.27.49.49,0,0,1-.08-.33.62.62,0,0,1,.16-.36.69.69,0,0,1,.34-.22,1,1,0,0,1,.25-.6,1.12,1.12,0,0,1,.49-.4,1,1,0,0,1,.48-.1,2.59,2.59,0,0,1,.72.16,2,2,0,0,0,.63.15,1,1,0,0,0,.68-.22,1,1,0,0,0,.4-.54.82.82,0,0,0,.26-.14.92.92,0,0,0,.23-.25,2.09,2.09,0,0,1-.5.16,2.25,2.25,0,0,1-.58,0,1,1,0,0,0,.12-.16c.24-.33.22-.61.44-1a2.33,2.33,0,0,1,.56-.69,2.6,2.6,0,0,1,1.21-.5c.32-.09.51,0,.83-.16.16-.06.28,0,.4-.17a.43.43,0,0,0,.15-.27.45.45,0,0,0,0-.23,1.58,1.58,0,0,1,.56-.21,1.68,1.68,0,0,1,.74,0,1,1,0,0,1,.42.17.76.76,0,0,1,.3.34.64.64,0,0,1,0,.57,1.88,1.88,0,0,0-.5.39"/><path class="cls-2" d="M49.88,51.12a.59.59,0,0,0-.13-.34.66.66,0,0,0-.31-.21,1.23,1.23,0,0,0-.39-.07h-.11a.72.72,0,0,1-.29,0,.41.41,0,0,1-.24-.11L48.05,50l.14,0h.64a.92.92,0,0,1,.29,0l.2.06-.27-.43a.68.68,0,0,0-.2-.24.47.47,0,0,0-.3-.1h-.64a.49.49,0,0,1-.27,0c-.09,0-.12-.1-.19-.18l-.28-.35a.43.43,0,0,0,.18.06l.15,0h.56a1,1,0,0,1,.35.06,1.22,1.22,0,0,1,.24.1l-.53-.68a.46.46,0,0,0-.16-.15.45.45,0,0,0-.25-.07h-.5a.61.61,0,0,1-.24,0,.46.46,0,0,1-.2-.16l-.41-.7a2,2,0,0,0,.85-.17,1.55,1.55,0,0,0,.81-.58,1.59,1.59,0,0,0,0-1.79,1.56,1.56,0,0,0-.59-.55,3.76,3.76,0,0,0-.74-.32c-.34-.14-.68-.06-.85-.37a.52.52,0,0,1-.09-.43.42.42,0,0,1,.29-.29,1.17,1.17,0,0,0-1,0,1,1,0,0,0-.53.42.86.86,0,0,0-.08.73,5.86,5.86,0,0,0-1.8,1.43,6,6,0,0,1,.85-.15,6.65,6.65,0,0,1,.77-.06.72.72,0,0,1,.09-.43.75.75,0,0,1,.69-.42.57.57,0,0,0-.3.23.48.48,0,0,0-.11.49.38.38,0,0,0,.35.26.34.34,0,0,0,.24-.06.53.53,0,0,1,0-.28.57.57,0,0,1,.61-.43.45.45,0,0,0-.2.16.59.59,0,0,0,0,.77.58.58,0,0,0,.6.24.32.32,0,0,1-.05-.19c0-.22.22-.35.44-.35a.43.43,0,0,1,.45.41c0,.48-.39.45-.72.49a1.56,1.56,0,0,1-.56-.09c-.31-.06-.48-.12-.79-.18a6.75,6.75,0,0,0-1.79-.16,9.35,9.35,0,0,0-1.39.22c-.87.17-1.34.37-2.2.54a11.29,11.29,0,0,1-2.51.38,7.86,7.86,0,0,1-2.68-.36,1.47,1.47,0,0,1,.19.53,1.77,1.77,0,0,1,0,.32,3.17,3.17,0,0,0-.33-.6c-.2-.3-.42-.39-.61-.7a.75.75,0,0,1-.1-.2.36.36,0,0,1,0-.23.33.33,0,0,1,.07-.17.32.32,0,0,0,0,.16l.07.09.63.63a2.6,2.6,0,0,0-.42-1.9,1.94,1.94,0,0,0,.14-.76,1.7,1.7,0,0,0-.06-.59l-.34.23a1,1,0,0,0-.22.18.47.47,0,0,0-.12.3.56.56,0,0,0,0,.29.64.64,0,0,1-.26-.28.49.49,0,0,1-.06-.37.44.44,0,0,1,.15-.23c.13-.11.26-.07.42-.12L34,42.8a.24.24,0,0,0,0-.08.21.21,0,0,1,0-.06,1.63,1.63,0,0,0-.89,0,1.08,1.08,0,0,0-.53-.34,1,1,0,0,0-.38-.06,1.33,1.33,0,0,0-.56-.3,1.89,1.89,0,0,0-.58,0,1.87,1.87,0,0,0-.58,0,1.36,1.36,0,0,0-.57.3,1.2,1.2,0,0,0-.9.4,1.65,1.65,0,0,0-.32-.06,1.43,1.43,0,0,0-.58,0l0,.06,0,.08.38.14c.16.05.29,0,.42.12a.46.46,0,0,1,.16.23.54.54,0,0,1-.07.37.59.59,0,0,1-.26.28.56.56,0,0,0,0-.29.47.47,0,0,0-.12-.3,1,1,0,0,0-.22-.18L28,42.94a2,2,0,0,0-.06.59,1.94,1.94,0,0,0,.14.76,2.6,2.6,0,0,0-.42,1.9l.63-.63.07-.09a.32.32,0,0,0,0-.16.45.45,0,0,1,.08.17.45.45,0,0,1,0,.23.75.75,0,0,1-.1.2c-.18.31-.41.4-.61.7a3.17,3.17,0,0,0-.33.6.64.64,0,0,1-.05-.24.42.42,0,0,1,.05-.22,6,6,0,0,1-.83-.55,4.35,4.35,0,0,1-.73-.62c-.28-.33-.62-.52-.57-1,0-.22.15-.31.24-.52s.24-.4.23-.68a.9.9,0,0,0-.33-.7.66.66,0,0,0-.09-.45.68.68,0,0,0-.5-.37.58.58,0,0,1,.09.39.68.68,0,0,1-.11.34.51.51,0,0,1,.1.34.49.49,0,0,1-.19.38.73.73,0,0,0-.09-.56.8.8,0,0,0-.43-.4.57.57,0,0,0-.58-.46.54.54,0,0,0-.4.17.48.48,0,0,1,.34.21.46.46,0,0,1,.08.21.81.81,0,0,0-.14.12.75.75,0,0,0-.1.2.63.63,0,0,1,.51.25.65.65,0,0,1,.17.56.65.65,0,0,0-.18-.31.81.81,0,0,0-.85-.26.55.55,0,0,0-.48-.19.53.53,0,0,0-.45.27.53.53,0,0,1,.32.1.55.55,0,0,1,.19.18.95.95,0,0,0-.21.66.75.75,0,0,0,.18.5.58.58,0,0,0,.5.26.58.58,0,0,0,.18,0c.08,0,.12-.08.2-.07s.26.28,0,.37c-.07,0-.11,0-.18,0a.64.64,0,0,0-.23,0,.38.38,0,0,0-.27.16.4.4,0,0,0-.11.3.3.3,0,0,1-.23,0,.32.32,0,0,1-.16-.09.49.49,0,0,0,.08.45.51.51,0,0,0,.39.22.94.94,0,0,0,.47.47.73.73,0,0,0,.32.09c.15,0,.22-.09.37-.16s.13-.11.23-.12a.4.4,0,0,1,.28.07.38.38,0,0,1,.18.35c0,.2-.15.31-.33.39a.53.53,0,0,1-.39.05l.33.3a1,1,0,0,0,.32.23.86.86,0,0,0,.39.09H25a1.33,1.33,0,0,1,.4,0,.7.7,0,0,1,.38.17l.34.33-.23-.06-.19,0h-.08a1.65,1.65,0,0,1-.44,0l-.32-.09.53.5a.87.87,0,0,0,.32.22.82.82,0,0,0,.4.1h.06a1.39,1.39,0,0,1,.4,0,.77.77,0,0,1,.38.17l.35.33a.65.65,0,0,0-.23-.06l-.19,0h-.11a2.2,2.2,0,0,1-.44,0,1.7,1.7,0,0,1-.32-.1l.62.55a.89.89,0,0,0,.22.16.64.64,0,0,0,.27.07h.73c-.62.34-.78.52-1.33.8s-.9.71-1.57.67a4.61,4.61,0,0,1-.64-.16,1.63,1.63,0,0,0-.42-.08.94.94,0,0,0-.55.13.81.81,0,0,0-.31.3.9.9,0,0,1,.92.19,1,1,0,0,0-.38,0,1.15,1.15,0,0,0-.73.19.94.94,0,0,0-.45.6.72.72,0,0,0,0,.41l-.17.17c-.09.12-.17.19-.17.35a.4.4,0,0,0,.16.35.53.53,0,0,1,.28-.34.54.54,0,0,1,.3-.08l.11.08.17.07.15-.18a.82.82,0,0,1,.21-.68.85.85,0,0,1,.77-.34.82.82,0,0,0-.6.54.72.72,0,0,0-.05.48.59.59,0,0,0-.28.28.56.56,0,0,0,0,.61,1.08,1.08,0,0,1,.3-.34,1.17,1.17,0,0,1,.47-.21.88.88,0,0,0,.27.06,1.33,1.33,0,0,0,.4,0,.7.7,0,0,1-.09-.32.68.68,0,0,1,.42-.71.57.57,0,0,1,.34,0,.65.65,0,0,0-.31.18.56.56,0,0,0-.21.51.48.48,0,0,0,.24.36.47.47,0,0,0,.26.08.76.76,0,0,1,0,.21.7.7,0,0,1-.09.24.83.83,0,0,0,.5-.21.85.85,0,0,0,.24-.29.6.6,0,0,0,.26-.14.56.56,0,0,0,.25-.55.49.49,0,0,0-.17-.34.35.35,0,0,1,.35-.39.37.37,0,0,1,.35.43.29.29,0,0,1-.07.18h.64a.39.39,0,0,0,.24-.06.41.41,0,0,0,.22-.19l.25-.42a.52.52,0,0,1,.16-.17.29.29,0,0,1,.21-.09h.46a.45.45,0,0,0-.13.1.48.48,0,0,0-.09.11l-.2.35a1,1,0,0,1-.21.24l-.18.15.76,0a.44.44,0,0,0,.25-.06.43.43,0,0,0,.21-.19l.54-.84c-.11-.1-.5-.29-.61-.6a.88.88,0,0,1-.06-.36,1,1,0,0,1,.07-.3c0-.12.09-.16.13-.27a.62.62,0,0,0,0-.23.55.55,0,0,0,0-.18l.28.15a.35.35,0,0,1,.14.13.28.28,0,0,1,0,.2c0,.08,0,.12-.06.2A1.15,1.15,0,0,0,30,51a.57.57,0,0,0,0,.34c.07.16.18.21.31.31a1.81,1.81,0,0,0,.48.29V50.75h.45v1.12a.44.44,0,0,0,.06.25.33.33,0,0,0,.16.15l.35.18a.87.87,0,0,0,.36,0,.83.83,0,0,0,.27-.07l.64-.28a.5.5,0,0,1-.21,0,.71.71,0,0,1-.21-.11l-.82-.44a.54.54,0,0,0,.18-.3.58.58,0,0,0,0-.29,1.43,1.43,0,0,0-.07-.28,1,1,0,0,1,0-.17.32.32,0,0,1,0-.17.2.2,0,0,1,.08-.12l.36-.23a.77.77,0,0,0,0,.15.69.69,0,0,0,0,.2,2.09,2.09,0,0,0,.08.23,1.36,1.36,0,0,1,0,.27,1,1,0,0,1-.12.5l.85.47a.68.68,0,0,0,.24.08.4.4,0,0,0,.24,0l.78-.31a.38.38,0,0,1-.21,0,.61.61,0,0,1-.21-.11L33.32,51a.35.35,0,0,0-.13-.05L33,50.92a.51.51,0,0,0,.07-.15,1.2,1.2,0,0,0,.06-.24,1.18,1.18,0,0,0,0-.56c0-.23-.14-.33-.17-.55a.36.36,0,0,1,0-.17c0-.07,0-.12,0-.16l.43-.36a.47.47,0,0,0,0,.17.57.57,0,0,0,0,.13,1.3,1.3,0,0,0,.1.25c.05.1.07.16.11.26a1,1,0,0,0,.17-.18A1,1,0,0,0,34,49a.75.75,0,0,0,.05-.36.63.63,0,0,0-.1-.36L33.75,48a.49.49,0,0,1-.08-.23.58.58,0,0,1,.08-.31l.21-.49a.49.49,0,0,0,0,.24.48.48,0,0,0,.05.17l.17.32.21.28.22.5a1.19,1.19,0,0,1,0,.46,1.5,1.5,0,0,1-.24.53,3,3,0,0,1-.64.7s0,.1,0,.15a.78.78,0,0,1-.09.37l1.1.59a.54.54,0,0,0,.24.09.41.41,0,0,0,.24,0l.53-.28a.26.26,0,0,1-.21,0,.26.26,0,0,1-.14-.18.42.42,0,0,1,.26-.5c.74-.35,1.5-.62,2.44-1.06s1.58-.92,2.67-1.35a3.86,3.86,0,0,1,1.52-.51,1.59,1.59,0,0,1,1,.21,1.11,1.11,0,0,1,.36.32,1.16,1.16,0,0,1,.16.4c.09.39-.18.62-.14,1a1.75,1.75,0,0,0,.42,1.06,2.18,2.18,0,0,0,.79.54c.22.12.41.09.58.27a.49.49,0,0,1,.17.25.33.33,0,0,1,0,.24.92.92,0,0,0,.46-.08,1,1,0,0,0,.55-.43h.71a.58.58,0,0,1,.09.34.5.5,0,0,1-.1.38c-.11.12-.23.11-.39.13s-.34-.05-.56-.05a1.23,1.23,0,0,0-.63.12,1,1,0,0,0-.46.55,1,1,0,0,0-.05.47.58.58,0,0,0-.21.23.54.54,0,0,0,0,.6,1.15,1.15,0,0,1,.33-.29,1.51,1.51,0,0,1,.31-.16.89.89,0,0,1,.55-.8.86.86,0,0,1,.57,0,1,1,0,0,0-.58.33,1,1,0,0,0-.29.8.46.46,0,0,0-.09.3.43.43,0,0,0,.14.3,1,1,0,0,1,.71-.52,1.14,1.14,0,0,1,.45,0,.83.83,0,0,1,.88-1,.69.69,0,0,0-.4.27.58.58,0,0,0-.14.43.55.55,0,0,0,.26.44.49.49,0,0,0,0,.24.45.45,0,0,0,.16.22.56.56,0,0,1,.17-.32.6.6,0,0,1,.21-.14c.15-.07.25,0,.41-.06s.45,0,.65-.19a.69.69,0,0,0,0-1,3,3,0,0,0,0-.67,2.75,2.75,0,0,0-.1-.7h.08a.64.64,0,0,1,.22,0,.44.44,0,0,1,.23.22.9.9,0,0,0,0-.4m-17-7a.49.49,0,0,1-.14.31.38.38,0,0,1-.29.16h-.32a.37.37,0,0,1,.15.27.29.29,0,0,1-.3.3.3.3,0,0,1-.3-.3.28.28,0,0,1,.1-.21l.05-.06h-.34c-.08,0-.12.05-.18.11v-.23a.21.21,0,0,1,.18-.18h1a.6.6,0,0,0,.39-.17m-1.08-1.2a.18.18,0,0,1,.13,0,.31.31,0,0,1,.11.09l.32.42a.35.35,0,0,1,.05.08.27.27,0,0,0,.11.05H32.3a.35.35,0,0,1-.2-.05.38.38,0,0,1-.14-.14L31.7,43l-.07-.08a.28.28,0,0,0-.09-.06Zm-1.05-.16a.3.3,0,0,1,.19.07.34.34,0,0,1,.12.12l.39.55a.2.2,0,0,0,.06.07.45.45,0,0,0,.14.1h-.35a.27.27,0,0,1-.2-.07.31.31,0,0,1-.1-.13l-.32-.49-.09-.11a.42.42,0,0,0-.18-.11Zm-.87.16a.31.31,0,0,1,.23.13l.33.42a.35.35,0,0,0,.05.08.19.19,0,0,0,.11.05h-.27a.3.3,0,0,1-.19-.05.5.5,0,0,1-.15-.14L29.77,43l-.06-.08-.1-.06Zm-.37,1.37h1c.06,0,.09,0,.14.08s0,.16,0,.24v.08c-.05,0-.09-.1-.17-.1H30.2a.37.37,0,0,1,.15.27.3.3,0,0,1-.6,0,.27.27,0,0,1,.09-.21l.06-.06h-.31a.39.39,0,0,1-.3-.16.43.43,0,0,1-.13-.31.56.56,0,0,0,.39.17m-.42,5.43L29,50a1.19,1.19,0,0,0-.05.26,2.11,2.11,0,0,0,0,.56,1.06,1.06,0,0,1-.15-.15,1,1,0,0,1-.13-.18,2.13,2.13,0,0,1-.23-.45V50c-.19-.06-.49-.08-.66-.29a1.1,1.1,0,0,1-.2-.59,1.51,1.51,0,0,1,0-.52l.19-.54.19-.32.14-.35a.67.67,0,0,0,.05-.19.57.57,0,0,0,0-.26l.26.39a.43.43,0,0,1,.07.29.57.57,0,0,1-.07.31l-.26.49a.78.78,0,0,0-.08.4.68.68,0,0,0,0,.4.58.58,0,0,0,.51.34,1.14,1.14,0,0,1,0-.26c0-.11.06-.17.08-.28a.57.57,0,0,0,0-.13.91.91,0,0,0,0-.17l.43.61a.27.27,0,0,1,.05.19.29.29,0,0,1,0,.16m4.28-4.29a.88.88,0,0,1-.29.32,1.48,1.48,0,0,1-.42.2s-.06,0-.09,0,0,.07,0,.12a1.18,1.18,0,0,0,0,.2.72.72,0,0,1-.12.23.49.49,0,0,1-.3.19,4.38,4.38,0,0,1,0,.5,3.73,3.73,0,0,1-.12.58A.7.7,0,0,1,32,48a.91.91,0,0,1,0,.33.72.72,0,0,1-.13.45c-.22.28-.55.09-.9.09s-.69.19-.91-.09A.72.72,0,0,1,30,48.3a.91.91,0,0,1,.05-.33.7.7,0,0,1,.08-.2,3.73,3.73,0,0,1-.12-.58,4.38,4.38,0,0,1,0-.5.49.49,0,0,1-.3-.19.72.72,0,0,1-.12-.23c0-.08,0-.13,0-.2s0-.09-.06-.12-.05,0-.09,0a1.48,1.48,0,0,1-.42-.2.88.88,0,0,1-.29-.32.83.83,0,0,1-.13-.48,1,1,0,0,1,0-.24l.08-.17a.38.38,0,0,1,.1-.12.49.49,0,0,1,.14-.11v.54a.75.75,0,0,0,.16.5.84.84,0,0,0,.38.29,1.06,1.06,0,0,0,.46.1.93.93,0,0,0,0,.33.49.49,0,0,0,.14.3.45.45,0,0,0,.32.09.57.57,0,0,0,.31-.06c.08,0,.18,0,.2-.15a.17.17,0,0,0,0-.1c0-.09-.1-.1-.14-.18a.56.56,0,0,1-.09-.17.36.36,0,0,1,0-.17c0-.06,0-.13.05-.13h.73c.05,0,0,.07.05.13a.36.36,0,0,1,0,.17.53.53,0,0,1-.08.17c-.05.08-.12.09-.15.18a.17.17,0,0,0,0,.1c0,.1.12.11.2.15a.57.57,0,0,0,.31.06.45.45,0,0,0,.32-.09.49.49,0,0,0,.14-.3.74.74,0,0,0,0-.33,1.06,1.06,0,0,0,.46-.1.84.84,0,0,0,.38-.29.75.75,0,0,0,.16-.5v-.54a.49.49,0,0,1,.14.11.41.41,0,0,1,.11.12c0,.06,0,.12.07.17a1,1,0,0,1,0,.24.76.76,0,0,1-.13.48"/><path class="cls-1" d="M31.66,33.63a3.17,3.17,0,0,1-.06.75,2.16,2.16,0,0,0-.57-.05,2.19,2.19,0,0,0-.57,0,4.75,4.75,0,0,1-.06-.84l.25.3s.14-.32.2-.34h0a.25.25,0,0,0,.17,0,.34.34,0,0,0,.18,0c.07,0,.11.16.14.21a.81.81,0,0,0,.06.13l.25-.3Z"/><path class="cls-2" d="M40.19,29.89a5.43,5.43,0,0,1-1.14.1c-.76,0-1.17-.36-1.93-.32a2.63,2.63,0,0,0-1.08.21,1.62,1.62,0,0,0-.93.83,1.4,1.4,0,0,0,0,1.15,1.65,1.65,0,0,0,.76.82A2.67,2.67,0,0,0,37.2,33a5.79,5.79,0,0,0,2-.28c.65-.15,1-.3,1.64-.49s1.08-.31,1.77-.49a5.81,5.81,0,0,1,.76-.65,6.14,6.14,0,0,1,.89-.53l0-.23c-.68.14-1.06.23-1.72.41-.83.23-1.28.44-2.1.68a14.43,14.43,0,0,1-1.9.51,3.67,3.67,0,0,1-1.09.14c-.38,0-.66,0-.95-.2a.68.68,0,0,1-.29-.4.39.39,0,0,1,0-.32.33.33,0,0,1,.27-.15.31.31,0,0,1,.31.21.3.3,0,0,1-.09.33,1.34,1.34,0,0,0,.4,0c.19,0,.32,0,.46-.15a.52.52,0,0,0,.19-.39.52.52,0,0,0-.25-.45.53.53,0,0,0-.32-.1.57.57,0,0,1,.51,0,.44.44,0,0,1,.21.17.49.49,0,0,1,.12.42,2.42,2.42,0,0,0,.83-.21,3.1,3.1,0,0,0,.73-.46,4.49,4.49,0,0,0,.62-.52"/><path class="cls-2" d="M31,34.65a.73.73,0,0,0-.56.15.58.58,0,0,0-.1.12.33.33,0,0,0,0,.32c.11.23.4.08.66.08s.54.15.65-.08a.33.33,0,0,0,0-.32.58.58,0,0,0-.1-.12.72.72,0,0,0-.55-.15"/><path class="cls-2" d="M43,35.93c-.13.14-.25.21-.3.4a1.1,1.1,0,0,0,0,.34l0,.25a.7.7,0,0,1,0,.29.55.55,0,0,1-.11.23l-.5.53a.67.67,0,0,0,.1-.3.5.5,0,0,0,0-.32L42,36.94a.31.31,0,0,1,0-.19,1.13,1.13,0,0,1,0-.15l-.28.3a.55.55,0,0,0-.14.22.45.45,0,0,0,0,.28l.17.51a.36.36,0,0,1,0,.23.66.66,0,0,1-.17.29l-.5.52a.68.68,0,0,0,.11-.3.58.58,0,0,0,0-.32l-.16-.39a.28.28,0,0,1,0-.18.83.83,0,0,1,0-.15l-.28.28a.5.5,0,0,0-.13.22.42.42,0,0,0,0,.29l.18.5a.39.39,0,0,1,0,.24.51.51,0,0,1-.17.28l-.5.53a.65.65,0,0,0,.09-.23.76.76,0,0,0,0-.3L40.11,39a2,2,0,0,1-.28.3,1.88,1.88,0,0,1-.43.31.8.8,0,0,1-.14.4.9.9,0,0,1-.39.36.94.94,0,0,1-.65.13.6.6,0,0,0,.07-.35.44.44,0,0,0-.11-.3.39.39,0,0,0-.25-.14.94.94,0,0,1,.06.15c0,.07,0,.11.06.18a1.85,1.85,0,0,1-.34.4,1.79,1.79,0,0,1-.42.3H37a1.14,1.14,0,0,0-.26,0,.74.74,0,0,0-.29.12.76.76,0,0,0-.29.3,1,1,0,0,1-.06-.46,1,1,0,0,1,.26-.73.88.88,0,0,1,.38-.28A1,1,0,0,0,36,40a1,1,0,0,0-.23.49,1.18,1.18,0,0,0-.38.16A1.33,1.33,0,0,0,35,41a.65.65,0,0,1-.07-.49.64.64,0,0,1,.17-.3.55.55,0,0,1,.19-.12,1.43,1.43,0,0,1,.23-.37,1.44,1.44,0,0,1,.58-.4.84.84,0,0,0-.47.06,1.13,1.13,0,0,0-.58.67,1.71,1.71,0,0,0-.39.17,1.5,1.5,0,0,0-.34.27.48.48,0,0,1-.08-.33.6.6,0,0,1,.16-.36.69.69,0,0,1,.34-.22A1,1,0,0,1,35,39a1.12,1.12,0,0,1,.49-.4,1.33,1.33,0,0,1,.48-.1,2.29,2.29,0,0,1,.72.17,2.3,2.3,0,0,0,.63.14A1.14,1.14,0,0,0,38.4,38a.82.82,0,0,0,.26-.14.92.92,0,0,0,.23-.25,1.72,1.72,0,0,1-.5.16,1.61,1.61,0,0,1-.58,0,1,1,0,0,0,.12-.16c.24-.33.22-.61.44-.95a2.25,2.25,0,0,1,.56-.7,2.83,2.83,0,0,1,1.21-.5c.32-.08.51,0,.83-.15.16-.06.28,0,.4-.18a.41.41,0,0,0,.15-.27.46.46,0,0,0,0-.23,1.56,1.56,0,0,1,.56-.2,1.54,1.54,0,0,1,.74,0,1,1,0,0,1,.42.16.76.76,0,0,1,.3.34.64.64,0,0,1,0,.57,1.88,1.88,0,0,0-.5.39"/><path class="cls-2" d="M49.88,37.92a.6.6,0,0,0-.13-.35.85.85,0,0,0-.31-.21,1.23,1.23,0,0,0-.39-.06h-.11a1,1,0,0,1-.29,0,.42.42,0,0,1-.24-.12l-.36-.38.14,0h.64a1.35,1.35,0,0,1,.29,0l.2.07-.27-.44a.64.64,0,0,0-.2-.23.48.48,0,0,0-.3-.11h-.64a.48.48,0,0,1-.27,0,.65.65,0,0,1-.19-.18l-.28-.35.18.06.15,0h.56a1,1,0,0,1,.35.06,1.22,1.22,0,0,1,.24.1l-.53-.69A.57.57,0,0,0,48,35a.45.45,0,0,0-.25-.07h-.5a.47.47,0,0,1-.24,0,.35.35,0,0,1-.2-.16L46.36,34a2,2,0,0,0,.85-.17,1.56,1.56,0,0,0,.81-.59,1.36,1.36,0,0,0,.29-1,1.4,1.4,0,0,0-.26-.82,1.64,1.64,0,0,0-.59-.55,3.73,3.73,0,0,0-.74-.31c-.34-.15-.68-.06-.85-.38a.5.5,0,0,1-.09-.42.42.42,0,0,1,.29-.29,1.17,1.17,0,0,0-1,0,1,1,0,0,0-.53.41.87.87,0,0,0-.08.74,4.67,4.67,0,0,0-.82.51,5,5,0,0,0-1,.92,6.07,6.07,0,0,1,.85-.16,5,5,0,0,1,.77,0,.72.72,0,0,1,.09-.43.76.76,0,0,1,.69-.43.64.64,0,0,0-.3.24.48.48,0,0,0-.11.49.38.38,0,0,0,.35.26.34.34,0,0,0,.24-.07.5.5,0,0,1,0-.27.56.56,0,0,1,.61-.43.5.5,0,0,0-.2.15.61.61,0,0,0,0,.78.56.56,0,0,0,.6.23.29.29,0,0,1-.05-.18c0-.22.22-.36.44-.36a.45.45,0,0,1,.45.42c0,.48-.39.44-.72.49a1.56,1.56,0,0,1-.56-.09c-.31-.06-.48-.13-.79-.18a6.36,6.36,0,0,0-1.79-.16,9.35,9.35,0,0,0-1.39.22c-.87.17-1.34.36-2.2.54a11.9,11.9,0,0,1-2.51.38,7.86,7.86,0,0,1-2.68-.37,1.52,1.52,0,0,1,.19.54,1.67,1.67,0,0,1,0,.32,3.25,3.25,0,0,0-.33-.61c-.2-.3-.42-.39-.61-.7a.69.69,0,0,1-.1-.19.39.39,0,0,1,0-.24.36.36,0,0,1,.07-.17.27.27,0,0,0,0,.16.31.31,0,0,0,.07.09l.63.63a2.29,2.29,0,0,0-.06-1.13,2.21,2.21,0,0,0-.36-.76,2,2,0,0,0,.14-.76,1.7,1.7,0,0,0-.06-.59,2.54,2.54,0,0,0-.34.23.92.92,0,0,0-.22.17.49.49,0,0,0-.12.3.61.61,0,0,0,0,.3.67.67,0,0,1-.26-.29.46.46,0,0,1-.06-.36.41.41,0,0,1,.15-.23c.13-.11.26-.07.42-.12l.38-.15a.19.19,0,0,0,0-.07l0-.06a1.42,1.42,0,0,0-.58-.05,1.44,1.44,0,0,0-.31.05,1.16,1.16,0,0,0-.53-.34,1.2,1.2,0,0,0-.38-.05,1.22,1.22,0,0,0-.56-.3,1.89,1.89,0,0,0-.58,0,1.87,1.87,0,0,0-.58,0,1.26,1.26,0,0,0-.57.3,1.24,1.24,0,0,0-.38.05,1.08,1.08,0,0,0-.52.34,1.64,1.64,0,0,0-.32-.05,1.43,1.43,0,0,0-.58.05l0,.06,0,.07.38.15c.16.05.29,0,.42.12a.42.42,0,0,1,.16.23.51.51,0,0,1-.07.36.61.61,0,0,1-.26.29.61.61,0,0,0,0-.3.49.49,0,0,0-.12-.3.92.92,0,0,0-.22-.17L28,29.73a2,2,0,0,0-.06.6,2,2,0,0,0,.14.76,2.21,2.21,0,0,0-.36.76A2.29,2.29,0,0,0,27.66,33l.63-.63a.31.31,0,0,0,.07-.09.27.27,0,0,0,0-.16.53.53,0,0,1,.08.17.49.49,0,0,1,0,.24.69.69,0,0,1-.1.19c-.18.31-.41.4-.61.7a3.25,3.25,0,0,0-.33.61.69.69,0,0,1-.05-.24.42.42,0,0,1,.05-.22,6,6,0,0,1-.83-.56,3.88,3.88,0,0,1-.73-.61c-.28-.33-.62-.53-.57-1,0-.22.15-.32.24-.52s.24-.41.23-.69a.88.88,0,0,0-.33-.69.65.65,0,0,0-.09-.45.72.72,0,0,0-.5-.38.61.61,0,0,1,.09.39.72.72,0,0,1-.11.35.51.51,0,0,1,.1.34.49.49,0,0,1-.19.38.76.76,0,0,0-.09-.57.78.78,0,0,0-.43-.39.57.57,0,0,0-.58-.46.51.51,0,0,0-.4.17.45.45,0,0,1,.34.21.39.39,0,0,1,.08.21.81.81,0,0,0-.14.12.63.63,0,0,0-.1.2.66.66,0,0,1,.51.24.67.67,0,0,1,.17.57.68.68,0,0,0-.18-.32.83.83,0,0,0-.85-.26.57.57,0,0,0-.48-.18.52.52,0,0,0-.45.26.54.54,0,0,1,.32.11.47.47,0,0,1,.19.18.57.57,0,0,0-.12.18.8.8,0,0,0-.09.48.72.72,0,0,0,.18.49.55.55,0,0,0,.5.26.57.57,0,0,0,.18,0c.08,0,.12-.09.2-.08s.26.29,0,.38c-.07,0-.11,0-.18,0a.64.64,0,0,0-.23-.05.37.37,0,0,0-.27.15.44.44,0,0,0-.11.31.45.45,0,0,1-.23,0,.34.34,0,0,1-.16-.1.53.53,0,0,0,.47.67.87.87,0,0,0,.47.47.54.54,0,0,0,.32.09c.15,0,.22-.09.37-.15s.13-.11.23-.12a.35.35,0,0,1,.28.06.39.39,0,0,1,.18.36c0,.2-.15.3-.33.39a.65.65,0,0,1-.39,0l.33.3a1,1,0,0,0,.32.22.87.87,0,0,0,.39.1H25a1.75,1.75,0,0,1,.4,0,.71.71,0,0,1,.38.18l.34.33a.6.6,0,0,0-.23-.06l-.19,0h-.08a1.67,1.67,0,0,1-.44-.06l-.32-.09.53.51a1.21,1.21,0,0,0,.32.22,1,1,0,0,0,.4.1h.06a1.84,1.84,0,0,1,.4,0A.77.77,0,0,1,27,36l.35.33a1,1,0,0,0-.23,0,.65.65,0,0,0-.19,0h-.11a1.67,1.67,0,0,1-.44-.06L26,36.08l.62.55a.66.66,0,0,0,.22.15.52.52,0,0,0,.27.07h.73c-.62.35-.78.52-1.33.8s-.9.71-1.57.67a3.53,3.53,0,0,1-.64-.16,2.21,2.21,0,0,0-.42-.08.87.87,0,0,0-.55.14.69.69,0,0,0-.31.3.8.8,0,0,1,.46,0,.74.74,0,0,1,.46.22,1.58,1.58,0,0,0-.38,0,1.1,1.1,0,0,0-.73.2.9.9,0,0,0-.45.58.79.79,0,0,0,0,.43.85.85,0,0,0-.17.16.55.55,0,0,0-.17.35.43.43,0,0,0,.16.36.61.61,0,0,1,.58-.43.44.44,0,0,0,.11.08.49.49,0,0,0,.17.06l.15-.16a.83.83,0,0,1,.21-.69.88.88,0,0,1,.77-.34.84.84,0,0,0-.6.54.75.75,0,0,0-.05.49.55.55,0,0,0-.28.28.57.57,0,0,0,0,.61.9.9,0,0,1,.3-.34,1,1,0,0,1,.47-.21,1.28,1.28,0,0,0,.27,0,1.33,1.33,0,0,0,.4,0,.78.78,0,0,1-.09-.33.7.7,0,0,1,.42-.71.57.57,0,0,1,.34,0,.65.65,0,0,0-.31.18.56.56,0,0,0-.21.52.49.49,0,0,0,.24.35.4.4,0,0,0,.26.08.71.71,0,0,1,0,.21.7.7,0,0,1-.09.24.78.78,0,0,0,.5-.21.85.85,0,0,0,.24-.29.71.71,0,0,0,.26-.13.59.59,0,0,0,.25-.56.49.49,0,0,0-.17-.34.35.35,0,0,1,.35-.39.37.37,0,0,1,.35.44.28.28,0,0,1-.07.17h.64a.48.48,0,0,0,.24-.07.41.41,0,0,0,.22-.19l.25-.42a.52.52,0,0,1,.16-.17.33.33,0,0,1,.21-.09h.46a.43.43,0,0,0-.13.09.48.48,0,0,0-.09.11l-.2.35a1,1,0,0,1-.21.24,1.19,1.19,0,0,1-.18.15h.76a.71.71,0,0,0,.25-.06.55.55,0,0,0,.21-.19l.54-.85c-.11-.1-.5-.28-.61-.6a.85.85,0,0,1-.06-.36,1,1,0,0,1,.07-.3c0-.11.09-.16.13-.27a.62.62,0,0,0,0-.23.55.55,0,0,0,0-.18L30,37a.32.32,0,0,1,.14.14.27.27,0,0,1,0,.19c0,.09,0,.12-.06.2a1.21,1.21,0,0,0-.11.32.57.57,0,0,0,0,.34c.07.15.18.2.31.3a1.58,1.58,0,0,0,.48.29v-1.2h.45v1.11a.44.44,0,0,0,.06.25.35.35,0,0,0,.16.16l.35.17a.83.83,0,0,0,.63,0L33.1,39a.5.5,0,0,1-.21,0,.71.71,0,0,1-.21-.11l-.82-.44a.52.52,0,0,0,.18-.29.62.62,0,0,0,0-.3,1.43,1.43,0,0,0-.07-.28.85.85,0,0,1,0-.17.34.34,0,0,1,0-.17.18.18,0,0,1,.08-.11l.36-.24a.88.88,0,0,0,0,.16.58.58,0,0,0,0,.19,1.69,1.69,0,0,0,.08.24,1.17,1.17,0,0,1,0,.26,1,1,0,0,1-.12.5l.85.47a.53.53,0,0,0,.24.08.49.49,0,0,0,.24,0l.78-.31a.38.38,0,0,1-.21,0,.81.81,0,0,1-.21-.1l-.81-.45a.69.69,0,0,0-.13,0L33,37.72a.56.56,0,0,0,.07-.16.94.94,0,0,0,.06-.24,1.18,1.18,0,0,0,0-.56c0-.22-.14-.32-.17-.55a.32.32,0,0,1,0-.17c0-.06,0-.12,0-.16l.43-.36a.5.5,0,0,0,0,.17.57.57,0,0,0,0,.13.93.93,0,0,0,.1.25c.05.11.07.17.11.27a1.54,1.54,0,0,0,.17-.19,1,1,0,0,0,.22-.38.72.72,0,0,0,.05-.36.65.65,0,0,0-.1-.36l-.21-.31a.49.49,0,0,1-.08-.23.54.54,0,0,1,.08-.3l.21-.49a.48.48,0,0,0,0,.24.49.49,0,0,0,.05.16l.17.32.21.29.22.49a1.24,1.24,0,0,1,0,.47,1.45,1.45,0,0,1-.24.52,3.35,3.35,0,0,1-.64.71s0,.09,0,.15a.81.81,0,0,1-.09.37l1.1.59a.68.68,0,0,0,.24.08.4.4,0,0,0,.24,0l.53-.29a.26.26,0,0,1-.21,0,.28.28,0,0,1-.14-.19.41.41,0,0,1,.26-.49c.74-.36,1.5-.62,2.44-1.06s1.58-.93,2.67-1.35a3.71,3.71,0,0,1,1.52-.51,1.59,1.59,0,0,1,1,.2,1,1,0,0,1,.36.33,1.16,1.16,0,0,1,.16.4c.09.38-.18.61-.14,1a1.78,1.78,0,0,0,.42,1.06,2.31,2.31,0,0,0,.79.54c.22.11.41.08.58.26a.49.49,0,0,1,.17.25.36.36,0,0,1,0,.25,1.21,1.21,0,0,0,.46-.08,1,1,0,0,0,.55-.44h.71a.6.6,0,0,1,.09.34.49.49,0,0,1-.1.38c-.11.12-.23.11-.39.14s-.34-.07-.56-.06a1.23,1.23,0,0,0-.63.12,1,1,0,0,0-.46.55,1,1,0,0,0-.05.47.58.58,0,0,0-.21.23.54.54,0,0,0,0,.6,1.32,1.32,0,0,1,.33-.29,1.11,1.11,0,0,1,.31-.15.93.93,0,0,1,1.12-.86,1.1,1.1,0,0,0-.87,1.13.46.46,0,0,0-.09.3.41.41,0,0,0,.14.3,1.08,1.08,0,0,1,.71-.52,1.14,1.14,0,0,1,.45,0,.73.73,0,0,1,.16-.73.75.75,0,0,1,.72-.3.69.69,0,0,0-.4.27.6.6,0,0,0-.14.44.55.55,0,0,0,.26.43.53.53,0,0,0,0,.25.42.42,0,0,0,.16.21.56.56,0,0,1,.17-.32.6.6,0,0,1,.21-.14c.15-.07.25,0,.41,0s.45,0,.65-.2a.61.61,0,0,0,.25-.44.62.62,0,0,0-.22-.61,3,3,0,0,0,0-.67,2.68,2.68,0,0,0-.1-.69h.08a.64.64,0,0,1,.22,0,.38.38,0,0,1,.23.21.86.86,0,0,0,0-.39m-17-7a.44.44,0,0,1-.14.3.36.36,0,0,1-.29.17h-.32a.36.36,0,0,1,.15.27.29.29,0,0,1-.3.3.3.3,0,0,1-.3-.3.28.28,0,0,1,.1-.21l.05-.06h-.34c-.08,0-.12,0-.18.1v-.22a.21.21,0,0,1,.18-.19h1a.59.59,0,0,0,.39-.16m-1.08-1.21a.25.25,0,0,1,.13,0,.35.35,0,0,1,.11.1l.32.42s0,.05.05.07a.2.2,0,0,0,.11.06H32.3a.36.36,0,0,1-.2-.06.38.38,0,0,1-.14-.14l-.26-.34-.07-.08a.31.31,0,0,0-.09-.07Zm-1.05-.15a.35.35,0,0,1,.19.06l.12.12.39.55a.24.24,0,0,0,.06.08.42.42,0,0,0,.14.09h-.35a.27.27,0,0,1-.2-.06.31.31,0,0,1-.1-.13l-.32-.49a.54.54,0,0,0-.09-.12.4.4,0,0,0-.18-.1Zm-.87.15a.33.33,0,0,1,.13,0,.24.24,0,0,1,.1.1l.33.42s0,.05.05.07a.15.15,0,0,0,.11.06h-.27a.31.31,0,0,1-.19-.06.5.5,0,0,1-.15-.14l-.26-.34-.06-.08-.1-.07ZM29.55,31h1c.06,0,.09,0,.14.08s0,.16,0,.25v.07a.22.22,0,0,0-.17-.09H30.2a.36.36,0,0,1,.15.27.3.3,0,0,1-.6,0,.27.27,0,0,1,.09-.21l.06-.06h-.31a.38.38,0,0,1-.3-.17.39.39,0,0,1-.13-.3.55.55,0,0,0,.39.16m-.42,5.43-.12.34a1.28,1.28,0,0,0-.05.27,2.11,2.11,0,0,0,0,.56l-.15-.15a1,1,0,0,1-.13-.18,2.2,2.2,0,0,1-.23-.46v-.06c-.19-.06-.49-.08-.66-.29a1.07,1.07,0,0,1-.2-.58,1.51,1.51,0,0,1,0-.52l.19-.55.19-.32.14-.35a.59.59,0,0,0,.05-.19.58.58,0,0,0,0-.26l.26.4a.42.42,0,0,1,.07.29.51.51,0,0,1-.07.3l-.26.49a.8.8,0,0,0-.08.4.68.68,0,0,0,0,.4.54.54,0,0,0,.51.34,1,1,0,0,1,0-.25c0-.12.06-.17.08-.29a.53.53,0,0,0,0-.12,1.09,1.09,0,0,0,0-.18l.43.62a.54.54,0,0,1,0,.34m4.28-4.29a.84.84,0,0,1-.29.33,1.46,1.46,0,0,1-.42.19.26.26,0,0,0-.09,0s0,.07,0,.11a1.42,1.42,0,0,0,0,.2.68.68,0,0,1-.12.24.52.52,0,0,1-.3.18,4,4,0,0,1,0,.5,4.12,4.12,0,0,1-.12.59.64.64,0,0,1,.08.19,1,1,0,0,1,0,.33.7.7,0,0,1-.13.45c-.22.28-.55.1-.9.1s-.69.18-.91-.1a.7.7,0,0,1-.13-.45,1,1,0,0,1,.05-.33.64.64,0,0,1,.08-.19A4.12,4.12,0,0,1,30,34a4,4,0,0,1,0-.5.52.52,0,0,1-.3-.18.68.68,0,0,1-.12-.24c0-.08,0-.12,0-.2s0-.08-.06-.11a.26.26,0,0,0-.09,0,1.46,1.46,0,0,1-.42-.19.84.84,0,0,1-.29-.33.8.8,0,0,1-.13-.47.93.93,0,0,1,0-.24.89.89,0,0,1,.08-.17.41.41,0,0,1,.1-.13.76.76,0,0,1,.14-.11v.55a.72.72,0,0,0,.16.49.84.84,0,0,0,.38.29,1.07,1.07,0,0,0,.46.11.87.87,0,0,0,0,.32.45.45,0,0,0,.14.3.46.46,0,0,0,.32.1.69.69,0,0,0,.31-.06c.08,0,.18-.06.2-.15a.21.21,0,0,0,0-.11c0-.08-.1-.1-.14-.17a.51.51,0,0,1-.09-.18.32.32,0,0,1,0-.17c0-.05,0-.12.05-.12h.73c.05,0,0,.07.05.12a.32.32,0,0,1,0,.17.49.49,0,0,1-.08.18c-.05.07-.12.09-.15.17a.21.21,0,0,0,0,.11c0,.09.12.1.2.15a.69.69,0,0,0,.31.06.46.46,0,0,0,.32-.1.45.45,0,0,0,.14-.3.7.7,0,0,0,0-.32,1.07,1.07,0,0,0,.46-.11A.84.84,0,0,0,33,32.1a.72.72,0,0,0,.16-.49v-.55a.76.76,0,0,1,.14.11.45.45,0,0,1,.11.13c0,.05,0,.11.07.17a.93.93,0,0,1,0,.24.73.73,0,0,1-.13.47"/><path class="cls-1" d="M31.66,20.43a3.08,3.08,0,0,1-.06.74,2.16,2.16,0,0,0-.57-.05,2.2,2.2,0,0,0-.57.05,4.86,4.86,0,0,1-.06-.85l.25.31c0-.06.14-.33.2-.35h0a.25.25,0,0,0,.17,0,.27.27,0,0,0,.18,0c.07,0,.11.16.14.22l.06.13.25-.31Z"/><path class="cls-2" d="M40.19,16.68a4.84,4.84,0,0,1-1.14.1c-.76,0-1.17-.36-1.93-.31a2.47,2.47,0,0,0-1.08.2,1.62,1.62,0,0,0-.93.83,1.4,1.4,0,0,0,0,1.15,1.65,1.65,0,0,0,.76.82,2.67,2.67,0,0,0,1.37.33,5.79,5.79,0,0,0,2-.28c.65-.14,1-.3,1.64-.49s1.08-.31,1.77-.49a5.73,5.73,0,0,1,.76-.64,5.42,5.42,0,0,1,.89-.54l0-.23c-.68.14-1.06.23-1.72.41-.83.23-1.28.44-2.1.68a16.22,16.22,0,0,1-1.9.52,4,4,0,0,1-1.09.13c-.38,0-.66,0-.95-.2a.66.66,0,0,1-.29-.39.41.41,0,0,1,0-.33.33.33,0,0,1,.27-.15.31.31,0,0,1,.31.21.29.29,0,0,1-.09.33,1.34,1.34,0,0,0,.4,0,.78.78,0,0,0,.46-.14.56.56,0,0,0,.19-.4.57.57,0,0,0-.57-.55.61.61,0,0,1,.51,0,.51.51,0,0,1,.21.17.49.49,0,0,1,.12.42,2.42,2.42,0,0,0,.83-.21,3.1,3.1,0,0,0,.73-.46,4.49,4.49,0,0,0,.62-.52"/><path class="cls-2" d="M31,21.44a.73.73,0,0,0-.56.16.52.52,0,0,0-.1.11.33.33,0,0,0,0,.32c.11.23.4.08.66.08s.54.15.65-.08a.33.33,0,0,0,0-.32.52.52,0,0,0-.1-.11.72.72,0,0,0-.55-.16"/><path class="cls-2" d="M43,22.72c-.13.15-.25.21-.3.4a1.1,1.1,0,0,0,0,.34l0,.26a.76.76,0,0,1-.13.52l-.5.52a.67.67,0,0,0,.1-.3.5.5,0,0,0,0-.32L42,23.73c0-.07,0-.11,0-.19a1.13,1.13,0,0,1,0-.15l-.28.3a.55.55,0,0,0-.14.22.48.48,0,0,0,0,.29l.17.5a.39.39,0,0,1,0,.24.62.62,0,0,1-.17.28l-.5.53a.68.68,0,0,0,.11-.3.57.57,0,0,0,0-.32l-.16-.39a.31.31,0,0,1,0-.19,1.13,1.13,0,0,1,0-.15l-.28.28a.53.53,0,0,0-.13.23.39.39,0,0,0,0,.28l.18.51a.36.36,0,0,1,0,.23.54.54,0,0,1-.17.29l-.5.52a.6.6,0,0,0,.09-.22.81.81,0,0,0,0-.31l-.12-.43a1.92,1.92,0,0,1-.28.29,1.88,1.88,0,0,1-.43.31.84.84,0,0,1-.14.41.9.9,0,0,1-.39.36,1.06,1.06,0,0,1-.65.13.65.65,0,0,0,.07-.36.46.46,0,0,0-.11-.3.38.38,0,0,0-.25-.13l.06.14c0,.08,0,.12.06.19a1.59,1.59,0,0,1-.34.39,1.54,1.54,0,0,1-.42.3H37a1.13,1.13,0,0,0-.26,0,.61.61,0,0,0-.29.11.76.76,0,0,0-.29.3,1,1,0,0,1-.06-.45,1,1,0,0,1,.26-.74.94.94,0,0,1,.38-.27.94.94,0,0,0-.66.35.89.89,0,0,0-.23.49,1.16,1.16,0,0,0-.38.15,1.33,1.33,0,0,0-.41.33.62.62,0,0,1-.07-.48.64.64,0,0,1,.17-.3.55.55,0,0,1,.19-.12,1.28,1.28,0,0,1,.23-.37,1.37,1.37,0,0,1,.58-.41.85.85,0,0,0-.47.07.87.87,0,0,0-.37.29,1,1,0,0,0-.21.38,1.13,1.13,0,0,0-.39.17,1.23,1.23,0,0,0-.34.26.48.48,0,0,1-.08-.33.57.57,0,0,1,.16-.35.63.63,0,0,1,.34-.22,1,1,0,0,1,.25-.6,1.12,1.12,0,0,1,.49-.4,1.16,1.16,0,0,1,.48-.11,2.29,2.29,0,0,1,.72.17,2,2,0,0,0,.63.15,1.11,1.11,0,0,0,.68-.22,1.07,1.07,0,0,0,.4-.54.84.84,0,0,0,.26-.15.92.92,0,0,0,.23-.25,1.46,1.46,0,0,1-.5.16,1.61,1.61,0,0,1-.58,0,.88.88,0,0,0,.12-.15c.24-.34.22-.61.44-1a2.37,2.37,0,0,1,.56-.7,2.83,2.83,0,0,1,1.21-.5c.32-.08.51-.05.83-.15.16-.06.28-.05.4-.17a.46.46,0,0,0,.15-.28.42.42,0,0,0,0-.22,1.41,1.41,0,0,1,.56-.21,1.54,1.54,0,0,1,.74,0,1,1,0,0,1,.42.16.82.82,0,0,1,.3.34.64.64,0,0,1,0,.57,2.4,2.4,0,0,0-.5.39"/><path class="cls-2" d="M49.88,24.71a.59.59,0,0,0-.13-.34.66.66,0,0,0-.31-.21,1.23,1.23,0,0,0-.39-.07h-.11a1,1,0,0,1-.29,0,.42.42,0,0,1-.24-.12l-.36-.38a.37.37,0,0,0,.14,0l.13,0h.51a.92.92,0,0,1,.29,0l.2.06-.27-.44a.74.74,0,0,0-.2-.23.48.48,0,0,0-.3-.11h-.64a.48.48,0,0,1-.27,0c-.09,0-.12-.1-.19-.18l-.28-.35.18.06.15,0h.56a1,1,0,0,1,.35.06,1.22,1.22,0,0,1,.24.1l-.53-.68a.61.61,0,0,0-.16-.16.45.45,0,0,0-.25-.07h-.5a.47.47,0,0,1-.24,0,.35.35,0,0,1-.2-.16l-.41-.69a2,2,0,0,0,.85-.17,1.56,1.56,0,0,0,.81-.59,1.36,1.36,0,0,0,.29-1,1.4,1.4,0,0,0-.26-.82,1.64,1.64,0,0,0-.59-.55,3.73,3.73,0,0,0-.74-.31c-.34-.15-.68-.06-.85-.38a.5.5,0,0,1-.09-.42.42.42,0,0,1,.29-.29,1.17,1.17,0,0,0-1,0,1,1,0,0,0-.53.41.88.88,0,0,0-.08.74,4.67,4.67,0,0,0-.82.51,5,5,0,0,0-1,.92,6.07,6.07,0,0,1,.85-.16,5,5,0,0,1,.77-.05.72.72,0,0,1,.09-.43.74.74,0,0,1,.69-.42.57.57,0,0,0-.3.23.48.48,0,0,0-.11.49.38.38,0,0,0,.35.26.34.34,0,0,0,.24-.06.53.53,0,0,1,0-.28.57.57,0,0,1,.61-.43.5.5,0,0,0-.2.15.61.61,0,0,0,0,.78.56.56,0,0,0,.6.23.27.27,0,0,1-.05-.18c0-.22.22-.35.44-.35a.43.43,0,0,1,.45.41c0,.48-.39.44-.72.49a1.56,1.56,0,0,1-.56-.09c-.31-.06-.48-.13-.79-.18a6.36,6.36,0,0,0-1.79-.16,9.35,9.35,0,0,0-1.39.22c-.87.17-1.34.37-2.2.54a11.9,11.9,0,0,1-2.51.38,7.86,7.86,0,0,1-2.68-.37,1.52,1.52,0,0,1,.19.54,1.67,1.67,0,0,1,0,.32,3.25,3.25,0,0,0-.33-.61c-.2-.3-.42-.38-.61-.69a.93.93,0,0,1-.1-.2.39.39,0,0,1,0-.24.36.36,0,0,1,.07-.17.27.27,0,0,0,0,.16.31.31,0,0,0,.07.09l.63.63a2.29,2.29,0,0,0-.06-1.13,2.21,2.21,0,0,0-.36-.76,2,2,0,0,0,.14-.76,1.7,1.7,0,0,0-.06-.59,2.54,2.54,0,0,0-.34.23,1.28,1.28,0,0,0-.22.17.5.5,0,0,0-.12.31.57.57,0,0,0,0,.29.67.67,0,0,1-.26-.29.46.46,0,0,1-.06-.36.41.41,0,0,1,.15-.23c.13-.11.26-.07.42-.12a2.5,2.5,0,0,0,.38-.15.19.19,0,0,0,0-.07l0-.06a1.42,1.42,0,0,0-.58-.05,1,1,0,0,0-.31.06,1,1,0,0,0-.53-.34,1,1,0,0,0-.38-.06,1.22,1.22,0,0,0-.56-.3,1.89,1.89,0,0,0-.58,0,1.87,1.87,0,0,0-.58,0,1.26,1.26,0,0,0-.57.3,1,1,0,0,0-.38.06,1,1,0,0,0-.52.34,1.13,1.13,0,0,0-.32-.06,1.43,1.43,0,0,0-.58.05l0,.06,0,.07a3,3,0,0,0,.38.15c.16,0,.29,0,.42.12a.42.42,0,0,1,.16.23.51.51,0,0,1-.07.36.61.61,0,0,1-.26.29.57.57,0,0,0,0-.29.5.5,0,0,0-.12-.31,1.28,1.28,0,0,0-.22-.17L28,16.52a2,2,0,0,0-.06.6,2,2,0,0,0,.14.76,2.21,2.21,0,0,0-.36.76,2.29,2.29,0,0,0-.06,1.13l.63-.63a.31.31,0,0,0,.07-.09.27.27,0,0,0,0-.16.53.53,0,0,1,.08.17.49.49,0,0,1,0,.24.93.93,0,0,1-.1.2c-.18.31-.41.39-.61.69a3.25,3.25,0,0,0-.33.61.69.69,0,0,1-.05-.24.42.42,0,0,1,.05-.22,7,7,0,0,1-.83-.55,4.35,4.35,0,0,1-.73-.62c-.28-.33-.62-.53-.57-1,0-.22.15-.31.24-.52s.24-.41.23-.69a.88.88,0,0,0-.33-.69.65.65,0,0,0-.09-.45.72.72,0,0,0-.5-.38.63.63,0,0,1,.09.4.68.68,0,0,1-.11.34.51.51,0,0,1,.1.34.49.49,0,0,1-.19.38.76.76,0,0,0-.09-.57.78.78,0,0,0-.43-.39.57.57,0,0,0-.58-.46.51.51,0,0,0-.4.17.45.45,0,0,1,.34.21.39.39,0,0,1,.08.21.81.81,0,0,0-.14.12.63.63,0,0,0-.1.2.72.72,0,0,1,.68.81.65.65,0,0,0-.18-.31.79.79,0,0,0-.85-.26.55.55,0,0,0-.48-.19.52.52,0,0,0-.45.26.54.54,0,0,1,.32.11.47.47,0,0,1,.19.18.71.71,0,0,0-.12.18.8.8,0,0,0-.09.48.77.77,0,0,0,.18.5.6.6,0,0,0,.5.26l.18,0c.08,0,.12-.09.2-.08s.26.29,0,.38c-.07,0-.11,0-.18,0a.64.64,0,0,0-.23-.05.35.35,0,0,0-.27.16.4.4,0,0,0-.11.3.45.45,0,0,1-.23,0,.42.42,0,0,1-.16-.09.46.46,0,0,0,.08.44.46.46,0,0,0,.39.22.87.87,0,0,0,.47.47.63.63,0,0,0,.32.1c.15,0,.22-.1.37-.16s.13-.11.23-.12a.35.35,0,0,1,.28.07.37.37,0,0,1,.18.35c0,.2-.15.3-.33.39a.59.59,0,0,1-.39.05l.33.3a1,1,0,0,0,.32.22.76.76,0,0,0,.39.1H25a1.33,1.33,0,0,1,.4,0,.64.64,0,0,1,.38.17l.34.33a.6.6,0,0,0-.23-.06l-.19,0h-.08a1.67,1.67,0,0,1-.44-.06,1.17,1.17,0,0,1-.32-.09l.53.51a1,1,0,0,0,.32.22,1,1,0,0,0,.4.1h.06a1.84,1.84,0,0,1,.4,0,.87.87,0,0,1,.38.17l.35.33a1,1,0,0,0-.23-.05.65.65,0,0,0-.19,0h-.11a1.67,1.67,0,0,1-.44-.06L26,22.87l.62.55a.66.66,0,0,0,.22.15.52.52,0,0,0,.27.07h.73c-.62.35-.78.52-1.33.8s-.9.72-1.57.67a3.5,3.5,0,0,1-.64-.15,1.63,1.63,0,0,0-.42-.08.87.87,0,0,0-.55.13.75.75,0,0,0-.31.3.92.92,0,0,1,.92.18,1.58,1.58,0,0,0-.38,0,1.15,1.15,0,0,0-.73.2.92.92,0,0,0-.45.59.75.75,0,0,0,0,.42.91.91,0,0,0-.17.17c-.09.12-.17.19-.17.34a.42.42,0,0,0,.16.36.51.51,0,0,1,.28-.34.54.54,0,0,1,.3-.08l.11.08.17.06.15-.17a.8.8,0,0,1,.21-.68.83.83,0,0,1,.77-.34.8.8,0,0,0-.6.54.72.72,0,0,0-.05.48.55.55,0,0,0-.28.28.56.56,0,0,0,0,.61,1.08,1.08,0,0,1,.3-.34,1.05,1.05,0,0,1,.47-.21,1.28,1.28,0,0,0,.27,0,1.07,1.07,0,0,0,.4,0,.74.74,0,0,1-.09-.33.7.7,0,0,1,.42-.71.8.8,0,0,1,.34,0,.67.67,0,0,0-.31.19.55.55,0,0,0-.21.51.5.5,0,0,0,.24.36.57.57,0,0,0,.26.08.76.76,0,0,1,0,.21.78.78,0,0,1-.09.24.9.9,0,0,0,.5-.21,1,1,0,0,0,.24-.29.73.73,0,0,0,.26-.14.57.57,0,0,0,.25-.56.47.47,0,0,0-.17-.33.36.36,0,0,1,.35-.4.37.37,0,0,1,.35.44.29.29,0,0,1-.07.18h.64a.48.48,0,0,0,.24-.06.41.41,0,0,0,.22-.19l.25-.42a.69.69,0,0,1,.16-.18.32.32,0,0,1,.21-.08h.46a.32.32,0,0,0-.13.1.48.48,0,0,0-.09.11l-.2.34a1.27,1.27,0,0,1-.21.25l-.18.14h.76a.54.54,0,0,0,.25-.06.48.48,0,0,0,.21-.19l.54-.84c-.11-.1-.5-.29-.61-.6a.93.93,0,0,1-.06-.37,1.09,1.09,0,0,1,.07-.3c0-.11.09-.16.13-.27a.74.74,0,0,0,0-.41l.28.15a.38.38,0,0,1,.14.14.28.28,0,0,1,0,.2c0,.08,0,.12-.06.19a1.35,1.35,0,0,0-.11.32A.57.57,0,0,0,30,25c.07.16.18.2.31.31a1.55,1.55,0,0,0,.48.28v-1.2h.45v1.11a.42.42,0,0,0,.06.25.31.31,0,0,0,.16.16l.35.17a.64.64,0,0,0,.36,0,.63.63,0,0,0,.27-.06l.64-.28a.5.5,0,0,1-.21,0,2.12,2.12,0,0,1-.21-.11l-.82-.44a.54.54,0,0,0,.18-.3.61.61,0,0,0,0-.3,1.34,1.34,0,0,0-.07-.27,1,1,0,0,1,0-.17A.32.32,0,0,1,32,24c0-.06,0-.09.08-.12l.36-.24a.88.88,0,0,0,0,.16.69.69,0,0,0,0,.2,2.09,2.09,0,0,0,.08.23,1.17,1.17,0,0,1,0,.26,1,1,0,0,1-.12.5l.85.48a.68.68,0,0,0,.24.08.5.5,0,0,0,.24,0l.78-.31a.5.5,0,0,1-.21,0,.84.84,0,0,1-.21-.11l-.81-.45-.13-.05-.15,0a.56.56,0,0,0,.07-.16,1,1,0,0,0,.06-.23,1.23,1.23,0,0,0,0-.57c0-.22-.14-.32-.17-.55a.32.32,0,0,1,0-.17c0-.06,0-.12,0-.16l.43-.36a.5.5,0,0,0,0,.17.61.61,0,0,0,0,.14,1,1,0,0,0,.1.24c.05.11.07.17.11.27a1.54,1.54,0,0,0,.17-.19.91.91,0,0,0,.22-.38.72.72,0,0,0,.05-.36.62.62,0,0,0-.1-.35l-.21-.32a.45.45,0,0,1-.08-.23.54.54,0,0,1,.08-.3l.21-.49a.57.57,0,0,0,0,.41l.17.31.21.29.22.49a1.24,1.24,0,0,1,0,.47,1.58,1.58,0,0,1-.24.53,3.25,3.25,0,0,1-.64.7s0,.09,0,.15a.81.81,0,0,1-.09.37l1.1.59a.53.53,0,0,0,.24.08.34.34,0,0,0,.24,0l.53-.29a.22.22,0,0,1-.21,0,.28.28,0,0,1-.14-.18.42.42,0,0,1,.26-.5c.74-.36,1.5-.62,2.44-1.06s1.58-.92,2.67-1.35A3.71,3.71,0,0,1,42.28,21a1.59,1.59,0,0,1,1,.2,1,1,0,0,1,.36.33,1.16,1.16,0,0,1,.16.4c.09.38-.18.61-.14,1A1.78,1.78,0,0,0,44.07,24a2.31,2.31,0,0,0,.79.54c.22.12.41.08.58.26a.59.59,0,0,1,.17.25.36.36,0,0,1,0,.25.92.92,0,0,0,.46-.08,1.07,1.07,0,0,0,.55-.43h.71a.58.58,0,0,1,.09.34.5.5,0,0,1-.1.38c-.11.12-.23.11-.39.13s-.34-.06-.56-.05a1.23,1.23,0,0,0-.63.12.91.91,0,0,0-.46.55.94.94,0,0,0-.05.47.56.56,0,0,0-.21.22.56.56,0,0,0,0,.61,1.62,1.62,0,0,1,.64-.45.87.87,0,0,1,.55-.8.8.8,0,0,1,.57-.05,1,1,0,0,0-.58.33,1,1,0,0,0-.29.8.45.45,0,0,0-.09.3A.43.43,0,0,0,46,28a1,1,0,0,1,.71-.52,1,1,0,0,1,.45,0,.74.74,0,0,1,.16-.74.77.77,0,0,1,.72-.3.7.7,0,0,0-.4.28.56.56,0,0,0-.14.43.52.52,0,0,0,.26.43.53.53,0,0,0,0,.25.5.5,0,0,0,.16.22.56.56,0,0,1,.17-.32.62.62,0,0,1,.21-.15,1.84,1.84,0,0,1,.41-.05c.26-.05.45,0,.65-.2a.61.61,0,0,0,.25-.44.62.62,0,0,0-.22-.61,3,3,0,0,0,0-.67,2.74,2.74,0,0,0-.1-.69h.08a.64.64,0,0,1,.22,0,.41.41,0,0,1,.23.21.86.86,0,0,0,0-.39m-17-7a.49.49,0,0,1-.14.31.38.38,0,0,1-.29.16h-.32a.36.36,0,0,1,.15.27.29.29,0,0,1-.3.3.3.3,0,0,1-.3-.3.28.28,0,0,1,.1-.21l.05-.06h-.34c-.08,0-.12,0-.18.11V18a.21.21,0,0,1,.18-.19h1a.59.59,0,0,0,.39-.16m-1.08-1.2a.18.18,0,0,1,.13,0,.23.23,0,0,1,.11.09l.32.42a.35.35,0,0,1,.05.08.27.27,0,0,0,.11,0H32.3a.35.35,0,0,1-.2,0A.34.34,0,0,1,32,17l-.26-.34-.07-.08a.28.28,0,0,0-.09-.06Zm-1.05-.16a.35.35,0,0,1,.19.06.68.68,0,0,1,.12.12l.39.55a.24.24,0,0,0,.06.08.31.31,0,0,0,.14.09h-.35a.27.27,0,0,1-.2-.06A.31.31,0,0,1,31,17l-.32-.49a.54.54,0,0,0-.09-.12.4.4,0,0,0-.18-.1Zm-.87.16a.22.22,0,0,1,.13,0,.18.18,0,0,1,.1.09l.33.42a.35.35,0,0,0,.05.08.19.19,0,0,0,.11,0h-.27a.3.3,0,0,1-.19,0A.43.43,0,0,1,30,17l-.26-.34-.06-.08-.1-.06Zm-.37,1.36h1c.06,0,.09,0,.14.09s0,.15,0,.24v.07a.22.22,0,0,0-.17-.09H30.2a.36.36,0,0,1,.15.27.3.3,0,0,1-.6,0,.27.27,0,0,1,.09-.21l.06-.06h-.31a.39.39,0,0,1-.3-.16.43.43,0,0,1-.13-.31.55.55,0,0,0,.39.16m-.42,5.44-.12.34a1.19,1.19,0,0,0-.05.26,2.11,2.11,0,0,0,0,.56,1.06,1.06,0,0,1-.15-.15,1,1,0,0,1-.13-.18,2,2,0,0,1-.23-.46v-.06c-.19-.06-.49-.08-.66-.28a1.1,1.1,0,0,1-.2-.59,1.51,1.51,0,0,1,0-.52l.19-.55.19-.31.14-.36a.53.53,0,0,0,.05-.18.61.61,0,0,0,0-.27l.26.4a.42.42,0,0,1,.07.29.51.51,0,0,1-.07.3l-.26.5a.76.76,0,0,0-.08.39.68.68,0,0,0,0,.4.54.54,0,0,0,.51.34,1.06,1.06,0,0,1,0-.25c0-.12.06-.17.08-.28a.57.57,0,0,0,0-.13,1.09,1.09,0,0,0,0-.18l.43.62a.25.25,0,0,1,.05.19.29.29,0,0,1,0,.16M33.41,19a.84.84,0,0,1-.29.33,1.48,1.48,0,0,1-.42.2.15.15,0,0,0-.09,0s0,.07,0,.11a1.77,1.77,0,0,0,0,.2.68.68,0,0,1-.12.24.52.52,0,0,1-.3.18,4,4,0,0,1,0,.5,4.12,4.12,0,0,1-.12.59.64.64,0,0,1,.08.19,1,1,0,0,1,0,.34.72.72,0,0,1-.13.45c-.22.27-.55.09-.9.09s-.69.18-.91-.09a.72.72,0,0,1-.13-.45,1,1,0,0,1,.05-.34.64.64,0,0,1,.08-.19,4.12,4.12,0,0,1-.12-.59,4,4,0,0,1,0-.5.52.52,0,0,1-.3-.18.68.68,0,0,1-.12-.24c0-.07,0-.12,0-.2s0-.08-.06-.11a.15.15,0,0,0-.09,0,1.48,1.48,0,0,1-.42-.2.84.84,0,0,1-.29-.33.8.8,0,0,1-.13-.47.93.93,0,0,1,0-.24,1.3,1.3,0,0,1,.08-.17.41.41,0,0,1,.1-.13.45.45,0,0,1,.14-.1v.54a.72.72,0,0,0,.16.49.84.84,0,0,0,.38.29,1.07,1.07,0,0,0,.46.11.87.87,0,0,0,0,.32.5.5,0,0,0,.14.31.5.5,0,0,0,.32.09.69.69,0,0,0,.31-.06c.08,0,.18-.06.2-.15a.21.21,0,0,0,0-.11c0-.08-.1-.1-.14-.17a.56.56,0,0,1-.09-.17.38.38,0,0,1,0-.18c0-.05,0-.12.05-.12h.73c.05,0,0,.07.05.12a.38.38,0,0,1,0,.18.53.53,0,0,1-.08.17c-.05.07-.12.09-.15.17a.21.21,0,0,0,0,.11c0,.09.12.11.2.15a.69.69,0,0,0,.31.06.5.5,0,0,0,.32-.09.5.5,0,0,0,.14-.31.7.7,0,0,0,0-.32,1.07,1.07,0,0,0,.46-.11.84.84,0,0,0,.38-.29.72.72,0,0,0,.16-.49v-.54a.69.69,0,0,1,.25.23l.07.17a.93.93,0,0,1,0,.24.73.73,0,0,1-.13.47"/><path class="cls-1" d="M52.55,25.48a12.74,12.74,0,0,1,1-2,4,4,0,0,1,2.29-1.84L56,22a.67.67,0,0,0-.2.8,1,1,0,0,0,1.46.67,1.67,1.67,0,0,0,.95-1.82c-.31-1.37-2-1.42-3-.85-1.43.8-2.33,3.13-2.59,4.57Zm2.92-3.31a4.79,4.79,0,0,0-2,2.22,9.56,9.56,0,0,0-1.28,4,22.68,22.68,0,0,0,.57,7.09c.9,3.33,1.5,5.15,4.5,7.66l.52,2a17.87,17.87,0,0,1-1.36,4.09,14.17,14.17,0,0,1-1.87,3.3,11.18,11.18,0,0,1-2.69,2.67,12.9,12.9,0,0,1-4.63,2c-1.52.43-2.47.48-4,.9a15.2,15.2,0,0,0-5.59,2.37A13.73,13.73,0,0,0,35.9,62a13.81,13.81,0,0,0-4.31-2.88,21.57,21.57,0,0,0-3-.92c-1.56-.42-2.5-.47-4-.9a12.82,12.82,0,0,1-4.63-2,11.18,11.18,0,0,1-2.69-2.67,14.21,14.21,0,0,1-1.88-3.3A18.34,18.34,0,0,1,14,45.18l.52-2a11.4,11.4,0,0,0,3.66-4.88,16.8,16.8,0,0,0,.84-2.78A20.12,20.12,0,0,0,19.66,31a13.9,13.9,0,0,0,0-2.66A10.55,10.55,0,0,0,18,23.7a4.08,4.08,0,0,0-1.61-1.53,1,1,0,0,1,0,.7,1.38,1.38,0,0,1-1.92.9,2.1,2.1,0,0,1-1.1-2.53A5.36,5.36,0,0,1,15,18.75c.57-.61,1.27-1.06,1.87-1.64a10.92,10.92,0,0,0,2.78-3.67,9.46,9.46,0,0,0,5.86-.2c1.45-.39,2.23-.89,3.72-1.18a13.66,13.66,0,0,1,2.86-.33A6.34,6.34,0,0,1,35.9,13a6.37,6.37,0,0,1,3.82-1.31,13.66,13.66,0,0,1,2.86.33c1.49.29,2.27.79,3.71,1.18a9.49,9.49,0,0,0,5.87.2,12,12,0,0,0,3.72,4.47,8.48,8.48,0,0,1,2.38,2.72,4.62,4.62,0,0,1,.27.82l0,.11a2.11,2.11,0,0,1-.22,1.33,1.65,1.65,0,0,1-1,.88,1.37,1.37,0,0,1-1.91-.9,1,1,0,0,1,0-.7M14.52,44.66a13.11,13.11,0,0,0,2.88-4.11,12,12,0,0,1-2.55,2.77Zm4.73-19.2,0-.11c-.32-1.74-1.48-4.71-3.64-4.9a1.72,1.72,0,0,0-2,1.1,1.65,1.65,0,0,0,.16,1.18,1.34,1.34,0,0,0,.76.72A1,1,0,0,0,16,22.78a.67.67,0,0,0-.2-.8l.15-.3a4.51,4.51,0,0,1,2.69,2.55,10.74,10.74,0,0,1,.61,1.23M57.42,45.25a13.44,13.44,0,0,1-3.53-5.06c-.24-.65-.45-1.33-.75-2.19h0c-.25-.74-.48-1.54-.72-2.44a24,24,0,0,1-.63-6.73,22.39,22.39,0,0,1,.44-3.54c.36-1.92,1.61-5,3.95-5.19a2.55,2.55,0,0,1,1.62.36A8,8,0,0,0,56.56,19c-.56-.61-1.26-1.06-1.85-1.63A11.37,11.37,0,0,1,52,13.85a9.92,9.92,0,0,1-5.76-.28c-1.44-.38-2.22-.88-3.7-1.18a13.58,13.58,0,0,0-2.79-.32,6.1,6.1,0,0,0-3.82,1.41,5.51,5.51,0,0,0-1.74-1,5.32,5.32,0,0,0-2.07-.4,13.58,13.58,0,0,0-2.79.32c-1.49.3-2.26.8-3.7,1.18a9.92,9.92,0,0,1-5.76.28,12.7,12.7,0,0,1-3.69,4.32A9.45,9.45,0,0,0,14,20.44a2.88,2.88,0,0,1,2.79,0c1.52.85,2.47,3.25,2.76,4.81A22.24,22.24,0,0,1,20,28.83a15,15,0,0,1,0,2.22A24.75,24.75,0,0,1,19,37a9,9,0,0,1-.35,1,19.44,19.44,0,0,1-1.78,4.23,12.73,12.73,0,0,1-2.5,3,20,20,0,0,0,3.14,7.12A10.92,10.92,0,0,0,20.15,55a12.26,12.26,0,0,0,4.52,2c1.52.43,2.47.48,4,.9a15.16,15.16,0,0,1,5.7,2.42A11.71,11.71,0,0,1,35.9,61.5a13.84,13.84,0,0,1,4.19-2.73,24.13,24.13,0,0,1,3-.93c1.55-.42,2.5-.47,4-.9a12.26,12.26,0,0,0,4.52-2,10.92,10.92,0,0,0,2.62-2.59,20,20,0,0,0,3.14-7.12m-2.91-4.51a11.93,11.93,0,0,0,.69,1.32,12.25,12.25,0,0,0,2.1,2.61L57,43.32a13.11,13.11,0,0,1-2.45-2.58"/></svg>